<svg xmlns="http://www.w3.org/2000/svg" width="649" height="233.126" overflow="visible" xml:space="preserve"><text transform="translate(13.25 125.45)" font-family="Liberation Serif" font-size="21">0</text><text transform="translate(49.25 125.45)" font-family="Liberation Serif" font-size="21">1</text><text transform="translate(85.25 125.45)" font-family="Liberation Serif" font-size="21">0</text><text transform="translate(121.25 125.45)" font-family="Liberation Serif" font-size="21">1</text><text transform="translate(157.25 125.45)" font-family="Liberation Serif" font-size="21">1</text><text transform="translate(193.25 125.45)" font-family="Liberation Serif" font-size="21">1</text><text transform="translate(229.25 125.45)" font-family="Liberation Serif" font-size="21">0</text><text transform="translate(265.25 125.45)" font-family="Liberation Serif" font-size="21">0</text><text transform="translate(301.25 125.45)" font-family="Liberation Serif" font-size="21">0</text><text transform="translate(337.25 125.45)" font-family="Liberation Serif" font-size="21">0</text><text transform="translate(373.25 125.45)" font-family="Liberation Serif" font-size="21">0</text><text transform="translate(409.25 125.45)" font-family="Liberation Serif" font-size="21">1</text><text transform="translate(445.25 125.45)" font-family="Liberation Serif" font-size="21">0</text><text transform="translate(481.25 125.45)" font-family="Liberation Serif" font-size="21">1</text><text transform="translate(517.251 125.45)" font-family="Liberation Serif" font-size="21">0</text><text transform="translate(553.251 125.45)" font-family="Liberation Serif" font-size="21">0</text><text transform="translate(589.251 125.45)" font-family="Liberation Serif" font-size="21">1</text><text transform="translate(625.251 125.45)" font-family="Liberation Serif" font-size="21">0</text><path fill="none" stroke="#000" d="M.5 107.451h648v27H.5zm36 0v27m36-27v27m36-27v27m36-27v27m36-27v27m36-27v27m36-27v27m36-27v27m36-27v27m36-27v27m36-27v27m36-27v27m36-27v27m36-27v27m36-27v27m36-27v27m36-27v27"/><text transform="translate(290.514 17.45)"><tspan x="0" y="0" font-family="Liberation Serif" font-size="21">{</tspan><tspan x="10.08" y="0" font-family="Liberation Serif" font-style="italic" font-size="21">x, y, z</tspan><tspan x="57.894" y="0" font-family="Liberation Serif" font-size="21">}</tspan></text><path fill="none" stroke="#0060B6" stroke-width="2" d="M306.5 26.451c0 45-252 27-252 72"/><path fill="#0060B6" d="M54.5 104.486c-1.054-2.84-2.852-6.363-4.755-8.547l4.755 1.72 4.755-1.72c-1.903 2.184-3.702 5.707-4.755 8.547z"/><path fill="none" stroke="#0060B6" stroke-width="2" d="M306.5 26.451c0 45-117 27.792-117 72.792"/><path fill="#0060B6" d="M189.5 105.277c-1.054-2.84-2.852-6.363-4.755-8.547l4.755 1.72 4.755-1.72c-1.903 2.184-3.701 5.708-4.755 8.547z"/><path fill="none" stroke="#0060B6" stroke-width="2" d="M306.5 26.451c0 45 180 27 180 72"/><path fill="#0060B6" d="M486.5 104.486c-1.054-2.84-2.852-6.363-4.755-8.547l4.755 1.72 4.755-1.72c-1.903 2.184-3.702 5.707-4.755 8.547z"/><path fill="none" stroke="#BF0000" stroke-width="2" d="M324.5 26.451c0 45-162 27-162 72"/><path fill="#BF0000" d="M162.5 104.486c-1.054-2.84-2.852-6.363-4.755-8.547l4.755 1.72 4.755-1.72c-1.903 2.184-3.702 5.707-4.755 8.547z"/><path fill="none" stroke="#BF0000" stroke-width="2" d="M324.5 26.451c0 45 81 27 81 72"/><path fill="#BF0000" d="M405.5 104.486c-1.054-2.84-2.852-6.363-4.755-8.547l4.755 1.72 4.755-1.72c-1.903 2.184-3.702 5.707-4.755 8.547z"/><path fill="none" stroke="#BF0000" stroke-width="2" d="M324.5 26.451c0 45 270 27 270 72"/><path fill="#BF0000" d="M594.5 104.486c-1.054-2.84-2.852-6.363-4.755-8.547l4.755 1.72 4.755-1.72c-1.903 2.184-3.702 5.707-4.755 8.547z"/><path fill="none" stroke="#8210D2" stroke-width="2" d="M342.5 26.451c0 45-216 27-216 72"/><path fill="#8210D2" d="M126.5 104.486c-1.054-2.84-2.852-6.363-4.755-8.547l4.755 1.72 4.755-1.72c-1.903 2.184-3.702 5.707-4.755 8.547z"/><path fill="none" stroke="#8210D2" stroke-width="2" d="M342.5 26.451c0 45-135 27-135 72"/><path fill="#8210D2" d="M207.5 104.486c-1.054-2.84-2.852-6.363-4.755-8.547l4.755 1.72 4.755-1.72c-1.903 2.184-3.702 5.707-4.755 8.547z"/><path fill="none" stroke="#8210D2" stroke-width="2" d="M342.5 26.451c0 45 81 27 81 72"/><path fill="#8210D2" d="M423.5 104.486c-1.054-2.84-2.852-6.363-4.755-8.547l4.755 1.72 4.755-1.72c-1.904 2.184-3.702 5.707-4.755 8.547z"/><text transform="translate(317.497 224.451)" font-family="Liberation Serif" font-style="italic" font-size="21">w</text><path fill="none" stroke="#8C8C8C" stroke-width="2" d="M324.5 206.451c0-45-162-17.208-162-63"/><path fill="#8C8C8C" d="M162.5 137.416c1.054 2.84 2.852 6.363 4.755 8.547l-4.755-1.72-4.755 1.72c1.903-2.184 3.702-5.708 4.755-8.547z"/><path fill="none" stroke="#8C8C8C" stroke-width="2" d="M324.5 206.451c0-45 162-18.001 162-63"/><path fill="#8C8C8C" d="M486.5 137.416c1.054 2.84 2.852 6.363 4.755 8.547l-4.755-1.72-4.755 1.72c1.904-2.184 3.703-5.708 4.755-8.547z"/><path fill="none" stroke="#8C8C8C" stroke-width="2" d="M324.5 206.451c0-45 234-18.001 234-63"/><path fill="#8C8C8C" d="M558.5 137.416c1.054 2.84 2.852 6.363 4.755 8.547l-4.755-1.72-4.755 1.72c1.904-2.184 3.703-5.708 4.755-8.547z"/></svg>