<svg xmlns="http://www.w3.org/2000/svg" width="320" height="200" version="1.0"><path style="font-size:14px;font-style:normal;font-variant:normal;font-weight:700;font-stretch:normal;text-align:start;line-height:100%;writing-mode:lr-tb;text-anchor:start;fill:#000;fill-opacity:1;stroke:none;stroke-width:1px;stroke-linecap:butt;stroke-linejoin:miter;stroke-opacity:1;font-family:Courier New" d="M10.618 4.7v7.67h1.415c.337 0 .577.064.72.194.144.13.216.3.216.51a.647.647 0 0 1-.215.502c-.144.13-.384.195-.721.195H7.8c-.337 0-.577-.065-.72-.195a.654.654 0 0 1-.216-.51c0-.205.072-.372.215-.502.144-.13.384-.195.721-.195h1.415V6.524l-1.25.329a1.9 1.9 0 0 1-.452.082.607.607 0 0 1-.461-.212.74.74 0 0 1-.195-.52c0-.187.048-.334.143-.44.096-.108.297-.202.602-.284l3.015-.78zm15.784 2.864v.875c.588-.424 1.051-.707 1.391-.848.34-.141.657-.212.954-.212.455 0 .897.169 1.326.506.291.228.437.46.437.697a.7.7 0 0 1-.208.51.685.685 0 0 1-.503.208c-.173 0-.355-.087-.547-.26-.191-.173-.362-.26-.512-.26-.196 0-.489.123-.879.37-.39.246-.876.615-1.46 1.107v2.112h1.997c.337 0 .578.065.721.195.144.13.215.3.215.51a.647.647 0 0 1-.215.502c-.143.13-.384.195-.721.195h-4.231c-.338 0-.578-.065-.722-.195a.654.654 0 0 1-.215-.51c0-.205.072-.372.215-.502.144-.13.384-.195.722-.195H25V8.965h-.505c-.338 0-.578-.065-.722-.195a.654.654 0 0 1-.215-.51c0-.204.072-.372.215-.502.144-.13.384-.194.722-.194h1.907zm12.325 3.22c0 .537-.15 1.058-.448 1.561-.298.504-.743.905-1.333 1.203a4.046 4.046 0 0 1-1.849.448 4.02 4.02 0 0 1-1.832-.44c-.583-.295-1.028-.695-1.333-1.2a3.025 3.025 0 0 1-.458-1.586c0-.56.155-1.111.465-1.651a3.28 3.28 0 0 1 1.336-1.275 3.82 3.82 0 0 1 1.822-.465c.638 0 1.252.158 1.842.475.59.317 1.036.743 1.337 1.278.3.536.451 1.086.451 1.651zm-1.401.006c0-.451-.162-.866-.486-1.244-.442-.51-1.023-.766-1.743-.766-.633 0-1.162.203-1.586.609-.424.405-.636.875-.636 1.408 0 .437.215.846.643 1.227.428.38.955.57 1.58.57.628 0 1.157-.19 1.585-.57.428-.38.643-.792.643-1.234zm3.992-3.226v.396c.228-.223.434-.377.619-.461.184-.085.397-.127.639-.127.205 0 .408.05.608.15.2.1.397.251.588.452.242-.2.486-.35.735-.448a2.06 2.06 0 0 1 .762-.147c.52 0 .941.139 1.265.417.428.365.642.843.642 1.436v3.137c.292 0 .508.066.65.198a.665.665 0 0 1 .212.506.654.654 0 0 1-.212.503c-.142.13-.38.195-.718.195h-1.333V9.348c0-.214-.039-.363-.116-.445-.078-.082-.196-.123-.356-.123a.801.801 0 0 0-.43.123c-.17.114-.374.329-.616.643v2.823c.292 0 .508.066.65.198a.665.665 0 0 1 .212.506.654.654 0 0 1-.212.503c-.142.13-.38.195-.718.195h-1.333V9.348c0-.21-.04-.357-.12-.441-.08-.085-.199-.127-.359-.127a.89.89 0 0 0-.485.154c-.16.103-.35.307-.574.612v2.823c.292 0 .51.066.653.198a.66.66 0 0 1 .215.506.647.647 0 0 1-.215.503c-.144.13-.384.195-.721.195h-1.265c-.337 0-.578-.065-.721-.195a.654.654 0 0 1-.216-.51c0-.205.071-.372.212-.502.142-.13.36-.195.657-.195V8.965c-.297 0-.515-.066-.657-.198a.662.662 0 0 1-.212-.506c0-.205.072-.373.216-.503.143-.13.384-.194.72-.194h1.334zm11.82 6.207v-.329c-.352.187-.74.327-1.163.42a5.41 5.41 0 0 1-1.155.141c-.752 0-1.363-.2-1.832-.598-.47-.399-.704-.84-.704-1.323 0-.588.3-1.134.899-1.637.599-.504 1.427-.755 2.484-.755.424 0 .914.045 1.47.136v-.335a.61.61 0 0 0-.27-.512c-.18-.133-.523-.199-1.029-.199-.414 0-.952.082-1.613.246-.246.06-.437.09-.574.09a.635.635 0 0 1-.475-.202.712.712 0 0 1-.195-.516.66.66 0 0 1 .068-.308.544.544 0 0 1 .192-.209c.082-.052.253-.115.512-.188.347-.095.7-.172 1.06-.229a6.31 6.31 0 0 1 .978-.085c.87 0 1.546.188 2.026.564.481.376.722.89.722 1.541v2.885h.239c.337 0 .577.065.721.195.144.13.215.3.215.51a.647.647 0 0 1-.215.502c-.144.13-.384.195-.721.195h-1.64zm0-2.51a8.145 8.145 0 0 0-1.553-.163c-.57 0-1.06.139-1.47.417-.254.177-.382.357-.382.54 0 .132.061.239.184.321.228.15.54.226.937.226a3.89 3.89 0 0 0 1.145-.199 4.203 4.203 0 0 0 1.138-.54v-.601zm5.714-3.697v.471c.255-.219.537-.383.844-.492a2.97 2.97 0 0 1 1.002-.164c.83 0 1.485.257 1.969.772.382.41.574.948.574 1.614v2.604c.296 0 .515.065.656.195.141.13.212.3.212.51a.647.647 0 0 1-.215.502c-.144.13-.384.195-.722.195h-1.264c-.338 0-.578-.065-.721-.195a.654.654 0 0 1-.216-.51c0-.205.07-.372.212-.502.141-.13.36-.195.656-.195V9.724c0-.306-.082-.529-.246-.67-.214-.183-.535-.274-.964-.274-.323 0-.607.063-.85.188-.244.126-.553.391-.927.797v2.604c.36 0 .593.034.697.103a.663.663 0 0 1 .335.601.647.647 0 0 1-.215.503c-.144.13-.384.195-.721.195h-1.593c-.337 0-.578-.065-.721-.195a.654.654 0 0 1-.216-.51.67.67 0 0 1 .329-.594c.109-.069.344-.103.704-.103V8.965c-.297 0-.515-.066-.657-.198a.662.662 0 0 1-.211-.506c0-.205.071-.373.215-.503.143-.13.384-.194.721-.194h1.333zm13.33 3.814h-5.749a1.8 1.8 0 0 0 .776.882c.371.223.874.335 1.507.335.52 0 1.21-.112 2.072-.335.355-.091.601-.137.738-.137a.63.63 0 0 1 .472.198.69.69 0 0 1 .191.5.612.612 0 0 1-.205.464c-.182.169-.627.33-1.333.482a9.641 9.641 0 0 1-2.037.23c-1.121 0-2.018-.318-2.69-.951a3.086 3.086 0 0 1-1.008-2.338c0-.984.363-1.785 1.09-2.403a3.767 3.767 0 0 1 2.512-.926c.57 0 1.093.1 1.569.3.476.201.83.418 1.063.65.328.337.6.754.813 1.251.146.346.22.748.22 1.203v.595zM70.63 9.977c-.214-.401-.494-.701-.84-.9-.347-.198-.76-.297-1.238-.297-.474 0-.884.1-1.23.298-.347.198-.63.498-.848.899h4.156zM8.594 26.369h3.07c.168-.137.328-.205.478-.205.214 0 .384.07.51.212.125.141.187.383.187.725v.67H6.455v-1.484c2.524-2.083 4.049-3.422 4.573-4.02.264-.305.396-.594.396-.868 0-.341-.149-.643-.447-.905-.299-.262-.697-.393-1.193-.393-.502 0-.919.145-1.251.437-.173.155-.312.385-.417.69-.064.192-.152.329-.263.41a.68.68 0 0 1-.414.124.683.683 0 0 1-.496-.205.65.65 0 0 1-.208-.479c0-.273.126-.615.38-1.025.252-.41.621-.738 1.107-.985a3.45 3.45 0 0 1 1.582-.369c.884 0 1.609.268 2.174.804.565.535.848 1.183.848 1.944 0 .388-.081.747-.243 1.077-.162.33-.55.787-1.166 1.37-.483.46-1.424 1.286-2.823 2.475zm17.808-4.805v.875c.588-.424 1.051-.707 1.391-.848.34-.141.657-.212.954-.212.455 0 .897.169 1.326.506.291.228.437.46.437.697a.7.7 0 0 1-.208.51.685.685 0 0 1-.503.208c-.173 0-.355-.087-.547-.26-.191-.173-.362-.26-.512-.26-.196 0-.489.123-.879.37-.39.246-.876.615-1.46 1.107v2.112h1.997c.337 0 .578.065.721.195.144.13.215.3.215.51a.647.647 0 0 1-.215.502c-.143.13-.384.195-.721.195h-4.231c-.338 0-.578-.065-.722-.195a.654.654 0 0 1-.215-.51c0-.205.072-.372.215-.502.144-.13.384-.195.722-.195H25v-3.404h-.505c-.338 0-.578-.065-.722-.195a.654.654 0 0 1-.215-.51c0-.204.072-.372.215-.502.144-.13.384-.194.722-.194h1.907zm12.325 3.22c0 .537-.15 1.058-.448 1.561-.298.504-.743.905-1.333 1.203a4.046 4.046 0 0 1-1.849.448 4.02 4.02 0 0 1-1.832-.44c-.583-.295-1.028-.695-1.333-1.2a3.025 3.025 0 0 1-.458-1.586c0-.56.155-1.111.465-1.651a3.28 3.28 0 0 1 1.336-1.275 3.82 3.82 0 0 1 1.822-.465c.638 0 1.252.158 1.842.475.59.317 1.036.743 1.337 1.278.3.536.451 1.086.451 1.651zm-1.401.006c0-.451-.162-.866-.486-1.244-.442-.51-1.023-.766-1.743-.766-.633 0-1.162.203-1.586.609-.424.405-.636.875-.636 1.408 0 .437.215.846.643 1.227.428.38.955.57 1.58.57.628 0 1.157-.19 1.585-.57.428-.38.643-.792.643-1.234zm3.992-3.226v.396c.228-.223.434-.377.619-.461.184-.085.397-.127.639-.127.205 0 .408.05.608.15.2.1.397.251.588.452.242-.2.486-.35.735-.448a2.06 2.06 0 0 1 .762-.147c.52 0 .941.139 1.265.417.428.365.642.843.642 1.436v3.137c.292 0 .508.066.65.198a.665.665 0 0 1 .212.506.654.654 0 0 1-.212.503c-.142.13-.38.195-.718.195h-1.333v-4.423c0-.214-.039-.363-.116-.445-.078-.082-.196-.123-.356-.123a.801.801 0 0 0-.43.123c-.17.114-.374.329-.616.643v2.823c.292 0 .508.066.65.198a.665.665 0 0 1 .212.506.654.654 0 0 1-.212.503c-.142.13-.38.195-.718.195h-1.333v-4.423c0-.21-.04-.357-.12-.441-.08-.085-.199-.127-.359-.127a.89.89 0 0 0-.485.154c-.16.103-.35.307-.574.612v2.823c.292 0 .51.066.653.198a.66.66 0 0 1 .215.506.647.647 0 0 1-.215.503c-.144.13-.384.195-.721.195h-1.265c-.337 0-.578-.065-.721-.195a.654.654 0 0 1-.216-.51c0-.205.071-.372.212-.502.142-.13.36-.195.657-.195v-3.404c-.297 0-.515-.066-.657-.198a.662.662 0 0 1-.212-.506c0-.205.072-.373.216-.503.143-.13.384-.194.72-.194h1.334zm11.82 6.207v-.329c-.352.187-.74.327-1.163.42a5.41 5.41 0 0 1-1.155.141c-.752 0-1.363-.2-1.832-.598-.47-.399-.704-.84-.704-1.323 0-.588.3-1.134.899-1.637.599-.504 1.427-.755 2.484-.755.424 0 .914.045 1.47.136v-.335a.61.61 0 0 0-.27-.512c-.18-.133-.523-.199-1.029-.199-.414 0-.952.082-1.613.246-.246.06-.437.09-.574.09a.635.635 0 0 1-.475-.202.712.712 0 0 1-.195-.516.66.66 0 0 1 .068-.308.544.544 0 0 1 .192-.209c.082-.052.253-.115.512-.188.347-.095.7-.172 1.06-.229a6.31 6.31 0 0 1 .978-.085c.87 0 1.546.188 2.026.564.481.376.722.89.722 1.541v2.885h.239c.337 0 .577.065.721.195.144.13.215.3.215.51a.647.647 0 0 1-.215.502c-.144.13-.384.195-.721.195h-1.64zm0-2.51a8.145 8.145 0 0 0-1.553-.163c-.57 0-1.06.139-1.47.417-.254.177-.382.357-.382.54 0 .132.061.239.184.321.228.15.54.226.937.226a3.89 3.89 0 0 0 1.145-.199 4.203 4.203 0 0 0 1.138-.54v-.601zm5.714-3.697v.471c.255-.219.537-.383.844-.492a2.97 2.97 0 0 1 1.002-.164c.83 0 1.485.257 1.969.772.382.41.574.948.574 1.614v2.604c.296 0 .515.065.656.195.141.13.212.3.212.51a.647.647 0 0 1-.215.502c-.144.13-.384.195-.722.195h-1.264c-.338 0-.578-.065-.721-.195a.654.654 0 0 1-.216-.51c0-.205.07-.372.212-.502.141-.13.36-.195.656-.195v-2.645c0-.306-.082-.529-.246-.67-.214-.183-.535-.274-.964-.274-.323 0-.607.063-.85.188-.244.126-.553.391-.927.797v2.604c.36 0 .593.034.697.103a.663.663 0 0 1 .335.601.647.647 0 0 1-.215.503c-.144.13-.384.195-.721.195h-1.593c-.337 0-.578-.065-.721-.195a.654.654 0 0 1-.216-.51.67.67 0 0 1 .329-.594c.109-.069.344-.103.704-.103v-3.404c-.297 0-.515-.066-.657-.198a.662.662 0 0 1-.211-.506c0-.205.071-.373.215-.503.143-.13.384-.194.721-.194h1.333zm12.79 0v4.805c.296 0 .515.066.656.198a.661.661 0 0 1 .212.506.647.647 0 0 1-.215.503c-.144.13-.384.195-.721.195H70.24v-.322a6.741 6.741 0 0 1-1.149.41c-.364.092-.71.137-1.039.137-.46 0-.859-.097-1.196-.29a2.131 2.131 0 0 1-.8-.804c-.141-.246-.212-.553-.212-.922v-3.015h-.239c-.337 0-.578-.065-.721-.195a.654.654 0 0 1-.216-.51c0-.204.072-.372.216-.502.143-.13.384-.194.721-.194h1.64v4.17c0 .296.072.513.216.652.143.14.363.209.66.209.282 0 .586-.056.912-.168.326-.111.728-.313 1.207-.605v-2.857h-.506c-.337 0-.578-.065-.721-.195a.654.654 0 0 1-.216-.51c0-.204.072-.372.216-.502.143-.13.384-.194.72-.194h1.908zm6.932 1.64a2.797 2.797 0 0 0-1.504-.424c-.542 0-.973.09-1.292.267-.141.077-.212.162-.212.253 0 .105.096.207.287.307.146.073.472.144.978.212.93.128 1.576.256 1.941.383.478.169.848.42 1.107.752.26.333.39.684.39 1.053 0 .501-.221.92-.663 1.258-.634.487-1.456.731-2.468.731-.405 0-.78-.035-1.124-.106a4.122 4.122 0 0 1-.947-.31.797.797 0 0 1-.219.136.623.623 0 0 1-.24.048.67.67 0 0 1-.522-.216c-.13-.143-.195-.384-.195-.72v-.472c0-.338.065-.578.195-.722.13-.143.3-.215.51-.215.168 0 .31.047.423.14.114.094.203.254.267.482.214.182.471.32.772.414.3.093.647.14 1.04.14.642 0 1.14-.1 1.496-.301.169-.1.253-.205.253-.314 0-.183-.12-.333-.362-.452-.242-.118-.74-.218-1.497-.3-1.126-.119-1.878-.347-2.256-.684a1.575 1.575 0 0 1-.567-1.23c0-.502.211-.919.635-1.251.575-.456 1.326-.684 2.256-.684.324 0 .635.03.933.092.299.062.585.156.858.284a1.24 1.24 0 0 1 .243-.144.538.538 0 0 1 .208-.047c.192 0 .351.071.479.215.127.143.191.384.191.721v.342c0 .305-.036.513-.11.622a.688.688 0 0 1-.594.314.68.68 0 0 1-.444-.157.711.711 0 0 1-.246-.417zM11.903 37.088c.415.283.724.61.93.98.205.372.307.788.307 1.248 0 .497-.135.956-.407 1.378-.27.421-.664.74-1.179.957-.515.216-1.19.325-2.023.325-1.085 0-1.9-.169-2.447-.506-.306-.192-.459-.42-.459-.684 0-.2.068-.37.202-.51a.655.655 0 0 1 .489-.208c.132 0 .269.046.41.137.2.137.39.228.567.274.274.063.65.095 1.128.095.816 0 1.406-.106 1.77-.318.365-.212.548-.511.548-.899 0-.287-.106-.563-.318-.83a2.059 2.059 0 0 0-.851-.619c-.205-.082-.552-.139-1.04-.17-.232-.014-.41-.086-.536-.216a.667.667 0 0 1-.188-.482.704.704 0 0 1 .725-.71c.465 0 .713-.003.745-.008a1.43 1.43 0 0 0 .547-.177 1.2 1.2 0 0 0 .44-.414 1 1 0 0 0 .168-.543c0-.297-.13-.553-.393-.77-.262-.216-.655-.324-1.18-.324-.674 0-1.189.196-1.544.588-.105.114-.19.187-.253.218a.682.682 0 0 1-.321.076.671.671 0 0 1-.492-.205.687.687 0 0 1-.206-.506c0-.315.21-.62.63-.916.61-.433 1.373-.65 2.29-.65.865 0 1.56.246 2.084.739.524.492.787 1.084.787 1.777 0 .36-.078.696-.233 1.008-.155.312-.387.6-.697.865zm14.499-1.524v.875c.588-.424 1.051-.707 1.391-.848.34-.141.657-.212.954-.212.455 0 .897.169 1.326.506.291.228.437.46.437.697a.7.7 0 0 1-.208.51.685.685 0 0 1-.503.208c-.173 0-.355-.087-.547-.26-.191-.173-.362-.26-.512-.26-.196 0-.489.123-.879.37-.39.246-.876.615-1.46 1.107v2.112h1.997c.337 0 .578.065.721.195.144.13.215.3.215.51a.647.647 0 0 1-.215.502c-.143.13-.384.195-.721.195h-4.231c-.338 0-.578-.065-.722-.195a.654.654 0 0 1-.215-.51c0-.205.072-.372.215-.502.144-.13.384-.195.722-.195H25v-3.404h-.505c-.338 0-.578-.065-.722-.195a.654.654 0 0 1-.215-.51c0-.204.072-.372.215-.502.144-.13.384-.194.722-.194h1.907zm12.325 3.22c0 .537-.15 1.058-.448 1.561-.298.504-.743.905-1.333 1.203a4.046 4.046 0 0 1-1.849.448 4.02 4.02 0 0 1-1.832-.44c-.583-.295-1.028-.695-1.333-1.2a3.025 3.025 0 0 1-.458-1.586c0-.56.155-1.111.465-1.651a3.28 3.28 0 0 1 1.336-1.275 3.82 3.82 0 0 1 1.822-.465c.638 0 1.252.158 1.842.475.59.317 1.036.743 1.337 1.278.3.536.451 1.086.451 1.651zm-1.401.006c0-.451-.162-.866-.486-1.244-.442-.51-1.023-.766-1.743-.766-.633 0-1.162.203-1.586.609-.424.405-.636.875-.636 1.408 0 .437.215.846.643 1.227.428.38.955.57 1.58.57.628 0 1.157-.19 1.585-.57.428-.38.643-.792.643-1.234zm3.992-3.226v.396c.228-.223.434-.377.619-.461.184-.085.397-.127.639-.127.205 0 .408.05.608.15.2.1.397.251.588.452.242-.2.486-.35.735-.448a2.06 2.06 0 0 1 .762-.147c.52 0 .941.139 1.265.417.428.365.642.843.642 1.436v3.137c.292 0 .508.066.65.198a.665.665 0 0 1 .212.506.654.654 0 0 1-.212.503c-.142.13-.38.195-.718.195h-1.333v-4.423c0-.214-.039-.363-.116-.445-.078-.082-.196-.123-.356-.123a.801.801 0 0 0-.43.123c-.17.114-.374.329-.616.643v2.823c.292 0 .508.066.65.198a.665.665 0 0 1 .212.506.654.654 0 0 1-.212.503c-.142.13-.38.195-.718.195h-1.333v-4.423c0-.21-.04-.357-.12-.441-.08-.085-.199-.127-.359-.127a.89.89 0 0 0-.485.154c-.16.103-.35.307-.574.612v2.823c.292 0 .51.066.653.198a.66.66 0 0 1 .215.506.647.647 0 0 1-.215.503c-.144.13-.384.195-.721.195h-1.265c-.337 0-.578-.065-.721-.195a.654.654 0 0 1-.216-.51c0-.205.071-.372.212-.502.142-.13.36-.195.657-.195v-3.404c-.297 0-.515-.066-.657-.198a.662.662 0 0 1-.212-.506c0-.205.072-.373.216-.503.143-.13.384-.194.72-.194h1.334zm13.535 0v4.805c.296 0 .515.066.656.198a.661.661 0 0 1 .212.506.647.647 0 0 1-.215.503c-.144.13-.384.195-.721.195h-1.333v-.322a6.741 6.741 0 0 1-1.149.41c-.364.092-.71.137-1.039.137-.46 0-.859-.097-1.196-.29a2.131 2.131 0 0 1-.8-.804c-.141-.246-.212-.553-.212-.922v-3.015h-.24c-.336 0-.577-.065-.72-.195a.654.654 0 0 1-.216-.51c0-.204.072-.372.216-.502.143-.13.384-.194.72-.194h1.642v4.17c0 .296.071.513.215.652.143.14.363.209.66.209.282 0 .586-.056.912-.168.326-.111.728-.313 1.207-.605v-2.857h-.506c-.337 0-.578-.065-.721-.195a.654.654 0 0 1-.216-.51c0-.204.072-.372.216-.502.143-.13.384-.194.72-.194h1.908zm6.118-2.66v7.465h1.682c.337 0 .577.065.721.195.144.13.215.3.215.51a.647.647 0 0 1-.215.502c-.144.13-.384.195-.721.195h-4.765c-.337 0-.577-.065-.721-.195a.654.654 0 0 1-.215-.51c0-.205.071-.372.215-.502.144-.13.384-.195.721-.195h1.682v-6.063h-1.128c-.333 0-.572-.065-.718-.195a.65.65 0 0 1-.219-.51c0-.204.072-.372.216-.502.143-.13.384-.195.72-.195h2.53zm10.671 2.66v4.805c.296 0 .515.066.656.198a.661.661 0 0 1 .212.506.647.647 0 0 1-.215.503c-.144.13-.384.195-.721.195H70.24v-.322a6.741 6.741 0 0 1-1.149.41c-.364.092-.71.137-1.039.137-.46 0-.859-.097-1.196-.29a2.131 2.131 0 0 1-.8-.804c-.141-.246-.212-.553-.212-.922v-3.015h-.239c-.337 0-.578-.065-.721-.195a.654.654 0 0 1-.216-.51c0-.204.072-.372.216-.502.143-.13.384-.194.721-.194h1.64v4.17c0 .296.072.513.216.652.143.14.363.209.66.209.282 0 .586-.056.912-.168.326-.111.728-.313 1.207-.605v-2.857h-.506c-.337 0-.578-.065-.721-.195a.654.654 0 0 1-.216-.51c0-.204.072-.372.216-.502.143-.13.384-.194.72-.194h1.908zm6.932 1.64a2.797 2.797 0 0 0-1.504-.424c-.542 0-.973.09-1.292.267-.141.077-.212.162-.212.253 0 .105.096.207.287.307.146.073.472.144.978.212.93.128 1.576.256 1.941.383.478.169.848.42 1.107.752.26.333.39.684.39 1.053 0 .501-.221.92-.663 1.258-.634.487-1.456.731-2.468.731-.405 0-.78-.035-1.124-.106a4.122 4.122 0 0 1-.947-.31.797.797 0 0 1-.219.136.623.623 0 0 1-.24.048.67.67 0 0 1-.522-.216c-.13-.143-.195-.384-.195-.72v-.472c0-.338.065-.578.195-.722.13-.143.3-.215.51-.215.168 0 .31.047.423.14.114.094.203.254.267.482.214.182.471.32.772.414.3.093.647.14 1.04.14.642 0 1.14-.1 1.496-.301.169-.1.253-.205.253-.314 0-.183-.12-.333-.362-.452-.242-.118-.74-.218-1.497-.3-1.126-.119-1.878-.347-2.256-.684a1.575 1.575 0 0 1-.567-1.23c0-.502.211-.919.635-1.251.575-.456 1.326-.684 2.256-.684.324 0 .635.03.933.092.299.062.585.156.858.284a1.24 1.24 0 0 1 .243-.144.538.538 0 0 1 .208-.047c.192 0 .351.071.479.215.127.143.191.384.191.721v.342c0 .305-.036.513-.11.622a.688.688 0 0 1-.594.314.68.68 0 0 1-.444-.157.711.711 0 0 1-.246-.417zm-66.616 9.72v5.483c.296 0 .514.065.656.195.141.13.212.297.212.503a.657.657 0 0 1-.216.505c-.143.133-.36.199-.652.199v.56c.296 0 .514.066.656.198a.665.665 0 0 1 .212.506.647.647 0 0 1-.216.503c-.143.13-.384.195-.72.195h-1.88c-.338 0-.578-.065-.722-.195a.654.654 0 0 1-.215-.51c0-.205.072-.372.215-.502.144-.13.384-.195.721-.195h.547v-.56H6.75v-1.17l3.356-5.714h1.853zm-1.402 5.483v-3.445l-2.03 3.445h2.03zm15.846-2.843v.875c.588-.424 1.051-.707 1.391-.848.34-.141.657-.212.954-.212.455 0 .897.169 1.326.506.291.228.437.46.437.697a.7.7 0 0 1-.208.51.685.685 0 0 1-.503.208c-.173 0-.355-.087-.547-.26-.191-.173-.362-.26-.512-.26-.196 0-.489.123-.879.37-.39.246-.876.615-1.46 1.107v2.112h1.997c.337 0 .578.065.721.195.144.13.215.3.215.51a.647.647 0 0 1-.215.502c-.143.13-.384.195-.721.195h-4.231c-.338 0-.578-.065-.722-.195a.654.654 0 0 1-.215-.51c0-.205.072-.372.215-.502.144-.13.384-.195.722-.195H25v-3.404h-.505c-.338 0-.578-.065-.722-.195a.654.654 0 0 1-.215-.51c0-.204.072-.372.215-.502.144-.13.384-.194.722-.194h1.907zm11.662 0v4.805c.296 0 .515.066.656.198a.665.665 0 0 1 .212.506.647.647 0 0 1-.215.503c-.144.13-.384.195-.721.195h-1.333v-.322a6.741 6.741 0 0 1-1.149.41c-.364.092-.71.137-1.039.137-.46 0-.859-.097-1.196-.29a2.131 2.131 0 0 1-.8-.804c-.141-.246-.212-.553-.212-.922v-3.015h-.24c-.336 0-.577-.065-.72-.195a.654.654 0 0 1-.216-.51c0-.204.072-.372.216-.502.143-.13.384-.194.72-.194h1.641v4.17c0 .296.072.513.216.652.143.14.363.209.66.209.282 0 .586-.056.912-.168.326-.111.728-.313 1.207-.605v-2.857h-.506c-.337 0-.578-.065-.721-.195a.654.654 0 0 1-.216-.51c0-.204.072-.372.216-.502.143-.13.384-.194.72-.194h1.908zm3.65-2.66v3.145a4.32 4.32 0 0 1 1.043-.503 3.53 3.53 0 0 1 1.07-.167c.97 0 1.793.335 2.467 1.005a3.295 3.295 0 0 1 1.012 2.427c0 .907-.321 1.664-.964 2.273-.642.608-1.49.912-2.543.912-.373 0-.733-.048-1.08-.143a4.288 4.288 0 0 1-1.005-.424v.342h-1.64c-.337 0-.578-.065-.721-.195a.654.654 0 0 1-.216-.51c0-.205.073-.372.219-.502.146-.13.385-.195.718-.195h.239v-6.063h-.24c-.336 0-.577-.065-.72-.195a.654.654 0 0 1-.216-.51c0-.204.072-.372.216-.502.143-.13.384-.195.72-.195h1.641zm4.19 5.948c0-.58-.202-1.07-.608-1.47a2.038 2.038 0 0 0-1.49-.602c-.583 0-1.078.2-1.483.602a1.964 1.964 0 0 0-.609 1.45c0 .514.183.937.547 1.267.365.33.88.496 1.545.496.666 0 1.182-.165 1.549-.496.366-.33.55-.746.55-1.247zm9.49.526h-5.75a1.8 1.8 0 0 0 .776.882c.371.223.874.335 1.507.335.52 0 1.21-.112 2.072-.335.355-.091.601-.137.738-.137a.63.63 0 0 1 .472.198.69.69 0 0 1 .19.5.612.612 0 0 1-.204.464c-.182.169-.627.33-1.333.482a9.641 9.641 0 0 1-2.037.23c-1.121 0-2.018-.318-2.69-.951a3.086 3.086 0 0 1-1.009-2.338c0-.984.364-1.785 1.09-2.403a3.767 3.767 0 0 1 2.513-.926c.57 0 1.093.1 1.569.3.476.201.83.418 1.063.65.328.337.6.754.813 1.251.146.346.22.748.22 1.203v.595zm-1.553-1.401c-.214-.401-.494-.701-.84-.9-.347-.198-.76-.297-1.238-.297-.474 0-.884.1-1.23.298-.347.198-.63.498-.848.899h4.156zm5.011-2.413v.471c.255-.219.537-.383.844-.492a2.97 2.97 0 0 1 1.002-.164c.83 0 1.485.257 1.969.772.382.41.574.948.574 1.614v2.604c.296 0 .515.065.656.195.141.13.212.3.212.51a.647.647 0 0 1-.215.502c-.144.13-.384.195-.722.195h-1.264c-.338 0-.578-.065-.721-.195a.654.654 0 0 1-.216-.51c0-.205.07-.372.212-.502.141-.13.36-.195.656-.195v-2.645c0-.306-.082-.529-.246-.67-.214-.183-.535-.274-.964-.274-.323 0-.607.063-.85.188-.244.126-.553.391-.927.797v2.604c.36 0 .593.034.697.103a.663.663 0 0 1 .335.601.647.647 0 0 1-.215.503c-.144.13-.384.195-.721.195h-1.593c-.337 0-.578-.065-.721-.195a.654.654 0 0 1-.216-.51.67.67 0 0 1 .329-.594c.109-.069.344-.103.704-.103v-3.404c-.297 0-.515-.066-.657-.198a.662.662 0 0 1-.211-.506c0-.205.071-.373.215-.503.143-.13.384-.194.721-.194h1.333zm11.327 1.64a2.797 2.797 0 0 0-1.504-.424c-.542 0-.973.09-1.292.267-.141.077-.212.162-.212.253 0 .105.096.207.288.307.145.073.471.144.977.212.93.128 1.577.256 1.941.383.479.169.848.42 1.108.752.26.333.39.684.39 1.053 0 .501-.222.92-.664 1.258-.633.487-1.456.731-2.467.731-.406 0-.78-.035-1.125-.106a4.122 4.122 0 0 1-.947-.31.797.797 0 0 1-.218.136.623.623 0 0 1-.24.048.67.67 0 0 1-.523-.216c-.13-.143-.194-.384-.194-.72v-.472c0-.338.065-.578.194-.722.13-.143.3-.215.51-.215a.65.65 0 0 1 .424.14c.113.094.202.254.266.482.214.182.472.32.773.414.3.093.647.14 1.039.14.642 0 1.141-.1 1.497-.301.168-.1.253-.205.253-.314 0-.183-.121-.333-.363-.452-.241-.118-.74-.218-1.497-.3-1.125-.119-1.877-.347-2.256-.684a1.575 1.575 0 0 1-.567-1.23c0-.502.212-.919.636-1.251.574-.456 1.326-.684 2.256-.684.323 0 .634.03.933.092.298.062.584.156.858.284.086-.064.167-.112.242-.144a.538.538 0 0 1 .209-.047c.191 0 .35.071.478.215.128.143.192.384.192.721v.342c0 .305-.037.513-.11.622a.688.688 0 0 1-.594.314.68.68 0 0 1-.445-.157.711.711 0 0 1-.246-.417zM8.724 62.326v1.668c.52-.164.991-.246 1.415-.246.861 0 1.577.294 2.147.882.57.588.854 1.347.854 2.276 0 .957-.288 1.708-.865 2.253-.576.544-1.46.817-2.649.817-1.048 0-1.877-.199-2.488-.595-.355-.228-.533-.49-.533-.786 0-.187.07-.35.208-.489a.677.677 0 0 1 .496-.208c.16 0 .333.076.52.229.186.152.382.258.588.317.291.087.665.13 1.12.13.848 0 1.427-.135 1.737-.406.31-.272.465-.687.465-1.248 0-.551-.15-.984-.448-1.299-.298-.314-.682-.472-1.152-.472-.506 0-1.082.165-1.73.493a.842.842 0 0 1-.382.116.655.655 0 0 1-.503-.219.804.804 0 0 1-.201-.567v-4.047h4.286c.337 0 .578.065.721.195.144.13.215.3.215.509a.647.647 0 0 1-.215.502c-.143.13-.384.195-.721.195H8.724zm17.678 1.238v.875c.588-.424 1.051-.707 1.391-.848.34-.141.657-.212.954-.212.455 0 .897.169 1.326.506.291.228.437.46.437.697a.7.7 0 0 1-.208.51.685.685 0 0 1-.503.208c-.173 0-.355-.087-.547-.26-.191-.173-.362-.26-.512-.26-.196 0-.489.123-.879.37-.39.246-.876.615-1.46 1.107v2.112h1.997c.337 0 .578.065.721.195.144.13.215.3.215.51a.647.647 0 0 1-.215.502c-.143.13-.384.195-.721.195h-4.231c-.338 0-.578-.065-.722-.195a.654.654 0 0 1-.215-.51c0-.205.072-.372.215-.502.144-.13.384-.195.722-.195H25v-3.404h-.505c-.338 0-.578-.065-.722-.195a.654.654 0 0 1-.215-.51c0-.204.072-.372.215-.502.144-.13.384-.194.722-.194h1.907zm11.662 0v4.805c.296 0 .515.066.656.198a.665.665 0 0 1 .212.506.647.647 0 0 1-.215.503c-.144.13-.384.195-.721.195h-1.333v-.322a6.741 6.741 0 0 1-1.149.41c-.364.092-.71.137-1.039.137-.46 0-.859-.097-1.196-.29a2.131 2.131 0 0 1-.8-.804c-.141-.246-.212-.553-.212-.922v-3.015h-.24c-.336 0-.577-.065-.72-.195a.654.654 0 0 1-.216-.51c0-.204.072-.372.216-.502.143-.13.384-.194.72-.194h1.641v4.17c0 .296.072.513.216.652.143.14.363.209.66.209.282 0 .586-.056.912-.168.326-.111.728-.313 1.207-.605v-2.857h-.506c-.337 0-.578-.065-.721-.195a.654.654 0 0 1-.216-.51c0-.204.072-.372.216-.502.143-.13.384-.194.72-.194h1.908zm3.65-2.66v3.145a4.32 4.32 0 0 1 1.043-.503 3.53 3.53 0 0 1 1.07-.167c.97 0 1.793.335 2.467 1.005a3.295 3.295 0 0 1 1.012 2.427c0 .907-.321 1.664-.964 2.273-.642.608-1.49.912-2.543.912-.373 0-.733-.048-1.08-.143a4.288 4.288 0 0 1-1.005-.424v.342h-1.64c-.337 0-.578-.065-.721-.195a.654.654 0 0 1-.216-.51c0-.205.073-.372.219-.502.146-.13.385-.195.718-.195h.239v-6.063h-.24c-.336 0-.577-.065-.72-.195a.654.654 0 0 1-.216-.51c0-.204.072-.372.216-.502.143-.13.384-.195.72-.195h1.641zm4.19 5.948c0-.58-.202-1.07-.608-1.47a2.038 2.038 0 0 0-1.49-.602c-.583 0-1.078.2-1.483.602a1.964 1.964 0 0 0-.609 1.45c0 .514.183.937.547 1.267.365.33.88.496 1.545.496.666 0 1.182-.165 1.549-.496.366-.33.55-.746.55-1.247zm9.49.526h-5.75a1.8 1.8 0 0 0 .776.882c.371.223.874.335 1.507.335.52 0 1.21-.112 2.072-.335.355-.091.601-.137.738-.137a.63.63 0 0 1 .472.198.69.69 0 0 1 .19.5.612.612 0 0 1-.204.464c-.182.169-.627.33-1.333.482a9.641 9.641 0 0 1-2.037.23c-1.121 0-2.018-.318-2.69-.951a3.086 3.086 0 0 1-1.009-2.338c0-.984.364-1.785 1.09-2.403a3.767 3.767 0 0 1 2.513-.926c.57 0 1.093.1 1.569.3.476.201.83.418 1.063.65.328.337.6.754.813 1.251.146.346.22.748.22 1.203v.595zm-1.553-1.401c-.214-.401-.494-.701-.84-.9-.347-.198-.76-.297-1.238-.297-.474 0-.884.1-1.23.298-.347.198-.63.498-.848.899h4.156zm6.139-2.413v.875c.588-.424 1.052-.707 1.391-.848.34-.141.657-.212.954-.212.455 0 .897.169 1.326.506.292.228.437.46.437.697a.7.7 0 0 1-.208.51.685.685 0 0 1-.503.208c-.173 0-.355-.087-.546-.26-.192-.173-.363-.26-.513-.26-.196 0-.489.123-.879.37-.39.246-.876.615-1.459 1.107v2.112h1.996c.337 0 .578.065.721.195.144.13.216.3.216.51a.647.647 0 0 1-.216.502c-.143.13-.384.195-.72.195h-4.232c-.338 0-.578-.065-.722-.195a.654.654 0 0 1-.215-.51c0-.205.072-.372.215-.502.144-.13.384-.195.722-.195h.834v-3.404h-.506c-.337 0-.578-.065-.721-.195a.654.654 0 0 1-.216-.51c0-.204.072-.372.216-.502.143-.13.384-.194.72-.194h1.908zM8.587 78.985c.338-.282.659-.488.964-.618.306-.13.631-.195.978-.195.734 0 1.376.292 1.928.875.551.583.827 1.315.827 2.194 0 .816-.257 1.476-.77 1.98-.512.503-1.208.755-2.088.755-.733 0-1.337-.171-1.811-.513-.474-.342-.832-.868-1.073-1.58-.242-.71-.363-1.503-.363-2.378 0-1.048.24-1.92.718-2.615.478-.695 1.041-1.234 1.688-1.617a3.966 3.966 0 0 1 2.051-.574c.57 0 1.012.112 1.326.335.205.15.308.342.308.574a.707.707 0 0 1-.205.517.666.666 0 0 1-.492.208c-.11 0-.267-.055-.472-.164a.772.772 0 0 0-.355-.096c-.447 0-.91.127-1.388.38-.479.253-.893.641-1.244 1.165-.242.365-.417.82-.527 1.367zm.205 2.167c.146.547.343.921.592 1.121.248.201.602.301 1.063.301.46 0 .814-.12 1.063-.362.248-.242.372-.57.372-.984 0-.474-.142-.869-.427-1.183-.285-.314-.605-.472-.96-.472-.283 0-.585.14-.906.417-.321.278-.587.666-.797 1.162zm17.61-3.588v.875c.588-.424 1.051-.707 1.391-.848.34-.141.657-.212.954-.212.455 0 .897.169 1.326.506.291.228.437.46.437.697a.7.7 0 0 1-.208.51.685.685 0 0 1-.503.208c-.173 0-.355-.087-.547-.26-.191-.173-.362-.26-.512-.26-.196 0-.489.123-.879.37-.39.246-.876.615-1.46 1.107v2.112h1.997c.337 0 .578.065.721.195.144.13.215.3.215.51a.647.647 0 0 1-.215.502c-.143.13-.384.195-.721.195h-4.231c-.338 0-.578-.065-.722-.195a.654.654 0 0 1-.215-.51c0-.205.072-.372.215-.502.144-.13.384-.195.722-.195H25v-3.404h-.505c-.338 0-.578-.065-.722-.195a.654.654 0 0 1-.215-.51c0-.204.072-.372.215-.502.144-.13.384-.194.722-.194h1.907zm11.662 0v4.805c.296 0 .515.066.656.198a.665.665 0 0 1 .212.506.647.647 0 0 1-.215.503c-.144.13-.384.195-.721.195h-1.333v-.322a6.741 6.741 0 0 1-1.149.41c-.364.092-.71.137-1.039.137-.46 0-.859-.097-1.196-.29a2.131 2.131 0 0 1-.8-.804c-.141-.246-.212-.553-.212-.922v-3.015h-.24c-.336 0-.577-.065-.72-.195a.654.654 0 0 1-.216-.51c0-.204.072-.372.216-.502.143-.13.384-.194.72-.194h1.641v4.17c0 .296.072.513.216.652.143.14.363.209.66.209.282 0 .586-.056.912-.168.326-.111.728-.313 1.207-.605v-2.857h-.506c-.337 0-.578-.065-.721-.195a.654.654 0 0 1-.216-.51c0-.204.072-.372.216-.502.143-.13.384-.194.72-.194h1.908zm3.65-2.66v3.145a4.32 4.32 0 0 1 1.043-.503 3.53 3.53 0 0 1 1.07-.167c.97 0 1.793.335 2.467 1.005a3.295 3.295 0 0 1 1.012 2.427c0 .907-.321 1.664-.964 2.273-.642.608-1.49.912-2.543.912-.373 0-.733-.048-1.08-.143a4.288 4.288 0 0 1-1.005-.424v.342h-1.64c-.337 0-.578-.065-.721-.195a.654.654 0 0 1-.216-.51c0-.205.073-.372.219-.502.146-.13.385-.195.718-.195h.239v-6.063h-.24c-.336 0-.577-.065-.72-.195a.654.654 0 0 1-.216-.51c0-.204.072-.372.216-.502.143-.13.384-.195.72-.195h1.641zm4.19 5.948c0-.58-.202-1.07-.608-1.47a2.038 2.038 0 0 0-1.49-.602c-.583 0-1.078.2-1.483.602a1.964 1.964 0 0 0-.609 1.45c0 .514.183.937.547 1.267.365.33.88.496 1.545.496.666 0 1.182-.165 1.549-.496.366-.33.55-.746.55-1.247zm6.474-5.948v1.484H50.71v-1.484h1.668zm.192 2.66v4.805h1.681c.338 0 .578.065.722.195.143.13.215.3.215.51a.647.647 0 0 1-.215.502c-.144.13-.384.195-.722.195h-4.764c-.337 0-.578-.065-.721-.195a.654.654 0 0 1-.216-.51c0-.205.072-.372.216-.502.143-.13.384-.195.72-.195h1.682v-3.404h-1.127c-.333 0-.572-.065-.718-.195a.65.65 0 0 1-.219-.51c0-.204.072-.372.215-.502.144-.13.384-.194.722-.194h2.529zm9.885.252c.168-.159.341-.239.52-.239.2 0 .365.072.495.216.13.143.195.381.195.714v.902c0 .337-.065.577-.195.718a.66.66 0 0 1-.51.212.736.736 0 0 1-.485-.164c-.096-.082-.17-.25-.225-.503a.824.824 0 0 0-.397-.564c-.37-.218-.84-.328-1.415-.328-.66 0-1.19.194-1.59.581-.398.388-.598.878-.598 1.47 0 .547.192.979.575 1.296.383.316 1.018.475 1.907.475.583 0 1.06-.06 1.429-.178.218-.073.426-.197.622-.373.196-.175.373-.263.533-.263a.67.67 0 0 1 .496.212.688.688 0 0 1 .208.5c0 .309-.212.603-.636.88-.629.416-1.55.623-2.761.623-1.09 0-1.937-.226-2.543-.677-.82-.606-1.23-1.435-1.23-2.488 0-.998.332-1.824.997-2.478.666-.654 1.534-.981 2.605-.981.387 0 .747.036 1.08.11.332.072.64.182.923.327zm9.85 2.967c0 .538-.15 1.059-.448 1.562-.298.504-.742.905-1.333 1.203a4.046 4.046 0 0 1-1.849.448 4.02 4.02 0 0 1-1.832-.44c-.583-.295-1.027-.695-1.333-1.2a3.025 3.025 0 0 1-.458-1.586c0-.56.155-1.111.465-1.651a3.28 3.28 0 0 1 1.337-1.275 3.82 3.82 0 0 1 1.821-.465c.638 0 1.252.158 1.843.475.59.317 1.035.743 1.336 1.278.3.536.451 1.086.451 1.651zm-1.401.007c0-.451-.162-.866-.486-1.244-.442-.51-1.023-.766-1.743-.766-.633 0-1.162.203-1.586.609-.423.405-.635.875-.635 1.408 0 .437.214.846.642 1.227.429.38.955.57 1.58.57.628 0 1.157-.19 1.585-.57.429-.38.643-.792.643-1.234zm4.737-3.226v.471c.255-.219.537-.383.844-.492a2.97 2.97 0 0 1 1.002-.164c.83 0 1.485.257 1.969.772.382.41.574.948.574 1.614v2.604c.296 0 .515.065.656.195.141.13.212.3.212.51a.647.647 0 0 1-.215.502c-.144.13-.384.195-.722.195h-1.264c-.337 0-.578-.065-.721-.195a.654.654 0 0 1-.216-.51c0-.205.07-.372.212-.502.141-.13.36-.195.656-.195v-2.645c0-.306-.082-.529-.246-.67-.214-.183-.535-.274-.964-.274-.323 0-.607.063-.85.188-.244.126-.553.391-.927.797v2.604c.36 0 .593.034.697.103a.663.663 0 0 1 .335.601.647.647 0 0 1-.215.503c-.144.13-.384.195-.721.195h-1.593c-.337 0-.578-.065-.721-.195a.654.654 0 0 1-.215-.51.67.67 0 0 1 .328-.594c.109-.069.344-.103.704-.103v-3.404c-.296 0-.515-.066-.656-.198a.662.662 0 0 1-.212-.506c0-.205.071-.373.215-.503.143-.13.384-.194.721-.194h1.333zM11.35 90.326H8.143c-.018.274-.089.47-.212.592a.663.663 0 0 1-.485.18.66.66 0 0 1-.51-.211c-.13-.141-.194-.38-.194-.718v-1.244h6.084v1.401l-2.27 6.754c-.096.283-.202.47-.318.564a.65.65 0 0 1-.42.14.69.69 0 0 1-.503-.205.643.643 0 0 1-.208-.472c0-.1.036-.26.11-.478l2.132-6.303zm15.053 1.238v.875c.588-.424 1.051-.707 1.391-.848.34-.141.657-.212.954-.212.455 0 .897.169 1.326.506.291.228.437.46.437.697a.7.7 0 0 1-.208.51.685.685 0 0 1-.503.208c-.173 0-.355-.087-.547-.26-.191-.173-.362-.26-.512-.26-.196 0-.489.123-.879.37-.39.246-.876.615-1.46 1.107v2.112h1.997c.337 0 .578.065.721.195.144.13.215.3.215.51a.647.647 0 0 1-.215.502c-.143.13-.384.195-.721.195h-4.231c-.338 0-.578-.065-.722-.195a.654.654 0 0 1-.215-.51c0-.205.072-.372.215-.502.144-.13.384-.195.722-.195H25v-3.404h-.505c-.338 0-.578-.065-.722-.195a.654.654 0 0 1-.215-.51c0-.204.072-.372.215-.502.144-.13.384-.194.722-.194h1.907zm11.662 0v4.805c.296 0 .515.066.656.198a.665.665 0 0 1 .212.506.647.647 0 0 1-.215.503c-.144.13-.384.195-.721.195h-1.333v-.322a6.741 6.741 0 0 1-1.149.41c-.364.092-.71.137-1.039.137-.46 0-.859-.097-1.196-.29a2.131 2.131 0 0 1-.8-.804c-.141-.246-.212-.553-.212-.922v-3.015h-.24c-.336 0-.577-.065-.72-.195a.654.654 0 0 1-.216-.51c0-.204.072-.372.216-.502.143-.13.384-.194.72-.194h1.641v4.17c0 .296.072.513.216.652.143.14.363.209.66.209.282 0 .586-.056.912-.168.326-.111.728-.313 1.207-.605v-2.857h-.506c-.337 0-.578-.065-.721-.195a.654.654 0 0 1-.216-.51c0-.204.072-.372.216-.502.143-.13.384-.194.72-.194h1.908zm3.65-2.66v3.145a4.32 4.32 0 0 1 1.043-.503 3.53 3.53 0 0 1 1.07-.167c.97 0 1.793.335 2.467 1.005a3.295 3.295 0 0 1 1.012 2.427c0 .907-.321 1.664-.964 2.273-.642.608-1.49.912-2.543.912-.373 0-.733-.048-1.08-.143a4.288 4.288 0 0 1-1.005-.424v.342h-1.64c-.337 0-.578-.065-.721-.195a.654.654 0 0 1-.216-.51c0-.205.073-.372.219-.502.146-.13.385-.195.718-.195h.239v-6.063h-.24c-.336 0-.577-.065-.72-.195a.654.654 0 0 1-.216-.51c0-.204.072-.372.216-.502.143-.13.384-.195.72-.195h1.641zm4.19 5.948c0-.58-.202-1.07-.608-1.47a2.038 2.038 0 0 0-1.49-.602c-.583 0-1.078.2-1.483.602a1.964 1.964 0 0 0-.609 1.45c0 .514.183.937.547 1.267.365.33.88.496 1.545.496.666 0 1.182-.165 1.549-.496.366-.33.55-.746.55-1.247zm6.474-5.948v1.484H50.71v-1.484h1.668zm.192 2.66v4.805h1.681c.338 0 .578.065.722.195.143.13.215.3.215.51a.647.647 0 0 1-.215.502c-.144.13-.384.195-.722.195h-4.764c-.337 0-.578-.065-.721-.195a.654.654 0 0 1-.216-.51c0-.205.072-.372.216-.502.143-.13.384-.195.72-.195h1.682v-3.404h-1.127c-.333 0-.572-.065-.718-.195a.65.65 0 0 1-.219-.51c0-.204.072-.372.215-.502.144-.13.384-.194.722-.194h2.529zm9.885.252c.168-.159.341-.239.52-.239.2 0 .365.072.495.216.13.143.195.381.195.714v.902c0 .337-.065.577-.195.718a.66.66 0 0 1-.51.212.736.736 0 0 1-.485-.164c-.096-.082-.17-.25-.225-.503a.824.824 0 0 0-.397-.564c-.37-.218-.84-.328-1.415-.328-.66 0-1.19.194-1.59.581-.398.388-.598.878-.598 1.47 0 .547.192.979.575 1.296.383.316 1.018.475 1.907.475.583 0 1.06-.06 1.429-.178.218-.073.426-.197.622-.373.196-.175.373-.263.533-.263a.67.67 0 0 1 .496.212.688.688 0 0 1 .208.5c0 .309-.212.603-.636.88-.629.416-1.55.623-2.761.623-1.09 0-1.937-.226-2.543-.677-.82-.606-1.23-1.435-1.23-2.488 0-.998.332-1.824.997-2.478.666-.654 1.534-.981 2.605-.981.387 0 .747.036 1.08.11.332.072.64.182.923.327zm9.187-.252v4.805c.296 0 .515.066.656.198a.661.661 0 0 1 .212.506.647.647 0 0 1-.215.503c-.144.13-.384.195-.721.195H70.24v-.322a6.741 6.741 0 0 1-1.149.41c-.364.092-.71.137-1.039.137-.46 0-.859-.097-1.196-.29a2.131 2.131 0 0 1-.8-.804c-.141-.246-.212-.553-.212-.922v-3.015h-.239c-.337 0-.578-.065-.721-.195a.654.654 0 0 1-.216-.51c0-.204.072-.372.216-.502.143-.13.384-.194.721-.194h1.64v4.17c0 .296.072.513.216.652.143.14.363.209.66.209.282 0 .586-.056.912-.168.326-.111.728-.313 1.207-.605v-2.857h-.506c-.337 0-.578-.065-.721-.195a.654.654 0 0 1-.216-.51c0-.204.072-.372.216-.502.143-.13.384-.194.72-.194h1.908zm4 0v.471c.254-.219.536-.383.843-.492a2.97 2.97 0 0 1 1.002-.164c.83 0 1.485.257 1.969.772.382.41.574.948.574 1.614v2.604c.296 0 .515.065.656.195.141.13.212.3.212.51a.647.647 0 0 1-.215.502c-.144.13-.384.195-.722.195h-1.264c-.337 0-.578-.065-.721-.195a.654.654 0 0 1-.216-.51c0-.205.07-.372.212-.502.141-.13.36-.195.656-.195v-2.645c0-.306-.082-.529-.246-.67-.214-.183-.535-.274-.964-.274-.323 0-.607.063-.85.188-.244.126-.553.391-.927.797v2.604c.36 0 .593.034.697.103a.663.663 0 0 1 .335.601.647.647 0 0 1-.215.503c-.144.13-.384.195-.721.195h-1.593c-.337 0-.578-.065-.721-.195a.654.654 0 0 1-.215-.51.67.67 0 0 1 .328-.594c.109-.069.344-.103.704-.103v-3.404c-.296 0-.515-.066-.656-.198a.662.662 0 0 1-.212-.506c0-.205.071-.373.215-.503.143-.13.384-.194.721-.194h1.333zm13.028-2.66v7.465h.24c.332 0 .572.065.717.195.146.13.22.3.22.51a.647.647 0 0 1-.216.502c-.144.13-.384.195-.721.195h-1.64v-.342a4.075 4.075 0 0 1-2.085.567c-1.054 0-1.901-.304-2.544-.912-.642-.609-.964-1.366-.964-2.273 0-.948.337-1.757 1.012-2.427.674-.67 1.497-1.005 2.468-1.005.364 0 .722.056 1.073.167.35.112.697.28 1.04.503v-1.743h-.24c-.337 0-.578-.065-.721-.195a.647.647 0 0 1-.216-.503c0-.21.072-.379.216-.509.143-.13.384-.195.72-.195h1.641zm-1.4 5.948a1.989 1.989 0 0 0-.61-1.47 2.038 2.038 0 0 0-1.49-.602c-.583 0-1.077.2-1.483.602a1.964 1.964 0 0 0-.608 1.45c0 .514.182.937.546 1.267.365.33.88.496 1.545.496.661 0 1.176-.165 1.545-.496a1.6 1.6 0 0 0 .554-1.247zm9.556-3.288v4.805c.296 0 .515.066.656.198a.665.665 0 0 1 .212.506.647.647 0 0 1-.215.503c-.144.13-.384.195-.722.195h-1.333v-.322a6.741 6.741 0 0 1-1.148.41 4.251 4.251 0 0 1-1.04.137c-.46 0-.858-.097-1.195-.29a2.131 2.131 0 0 1-.8-.804c-.142-.246-.212-.553-.212-.922v-3.015h-.24c-.337 0-.577-.065-.72-.195a.654.654 0 0 1-.216-.51c0-.204.072-.372.215-.502.144-.13.384-.194.722-.194h1.64v4.17c0 .296.072.513.216.652.143.14.363.209.66.209.282 0 .586-.056.912-.168.326-.111.728-.313 1.206-.605v-2.857h-.506c-.337 0-.577-.065-.72-.195a.654.654 0 0 1-.216-.51c0-.204.072-.372.215-.502.144-.13.384-.194.721-.194h1.908zm6.931 1.64a2.797 2.797 0 0 0-1.504-.424c-.542 0-.973.09-1.292.267-.14.077-.211.162-.211.253 0 .105.095.207.287.307.145.073.471.144.977.212.93.128 1.577.256 1.942.383.478.169.847.42 1.107.752.26.333.39.684.39 1.053 0 .501-.221.92-.663 1.258-.634.487-1.457.731-2.468.731-.406 0-.78-.035-1.125-.106a4.122 4.122 0 0 1-.947-.31.797.797 0 0 1-.218.136.623.623 0 0 1-.24.048.67.67 0 0 1-.522-.216c-.13-.143-.195-.384-.195-.72v-.472c0-.338.065-.578.195-.722.13-.143.3-.215.509-.215a.65.65 0 0 1 .424.14c.114.094.202.254.266.482.214.182.472.32.773.414.3.093.647.14 1.039.14.642 0 1.141-.1 1.497-.301.168-.1.253-.205.253-.314 0-.183-.121-.333-.363-.452-.241-.118-.74-.218-1.497-.3-1.125-.119-1.877-.347-2.255-.684a1.575 1.575 0 0 1-.568-1.23c0-.502.212-.919.636-1.251.574-.456 1.326-.684 2.256-.684.323 0 .634.03.933.092.298.062.584.156.858.284.086-.064.167-.112.242-.144a.538.538 0 0 1 .209-.047c.191 0 .35.071.478.215.128.143.192.384.192.721v.342c0 .305-.037.513-.11.622a.688.688 0 0 1-.594.314.68.68 0 0 1-.445-.157.711.711 0 0 1-.246-.417z"/><path style="fill:#000;fill-opacity:1;stroke:none;stroke-width:1;stroke-linecap:square;stroke-miterlimit:4;stroke-dasharray:none;stroke-dashoffset:0;stroke-opacity:1" d="M424.535 78.277a8.682 7.814 0 1 1-17.364 0 8.682 7.814 0 1 1 17.364 0z" transform="matrix(.8063 0 0 .89588 -135.866 -30.744)"/><path style="fill:none;fill-rule:evenodd;stroke:#000;stroke-width:2;stroke-linecap:round;stroke-linejoin:miter;stroke-miterlimit:4;stroke-dasharray:none;stroke-opacity:1" d="m108.536 145.414-28.721 27.769"/><path style="fill:none;fill-opacity:1;stroke:#000;stroke-width:1.41191483;stroke-linecap:square;stroke-miterlimit:4;stroke-dasharray:none;stroke-dashoffset:0;stroke-opacity:1" d="M424.535 78.277a8.682 7.814 0 1 1-17.364 0 8.682 7.814 0 1 1 17.364 0z" transform="matrix(1.00787 0 0 1.11985 -114.24 97.463)"/><path style="font-size:14px;font-style:normal;font-variant:normal;font-weight:700;font-stretch:normal;text-align:start;line-height:100%;writing-mode:lr-tb;text-anchor:start;fill:#000;fill-opacity:1;stroke:none;stroke-width:1px;stroke-linecap:butt;stroke-linejoin:miter;stroke-opacity:1;font-family:Courier New" d="M306.45 182.093h-3.206c-.018.273-.089.47-.212.591a.663.663 0 0 1-.485.181.66.66 0 0 1-.51-.211c-.13-.142-.194-.381-.194-.718v-1.244h6.084v1.401l-2.27 6.754c-.096.282-.202.47-.318.564a.65.65 0 0 1-.42.14.69.69 0 0 1-.503-.205.643.643 0 0 1-.208-.472c0-.1.036-.26.11-.478l2.132-6.303zm-233.664-1.507v7.67h1.416c.337 0 .577.065.72.194.144.13.216.3.216.51a.647.647 0 0 1-.215.502c-.144.13-.384.195-.721.195H69.97c-.337 0-.578-.065-.721-.195a.654.654 0 0 1-.215-.51c0-.204.071-.372.215-.502.143-.13.384-.194.721-.194h1.415v-5.845l-1.25.328a1.9 1.9 0 0 1-.452.082.607.607 0 0 1-.461-.212.74.74 0 0 1-.195-.52c0-.186.048-.333.143-.44.096-.107.296-.202.602-.284l3.014-.78z"/><path style="fill:none;fill-opacity:1;stroke:#000;stroke-width:1.41191483;stroke-linecap:square;stroke-miterlimit:4;stroke-dasharray:none;stroke-dashoffset:0;stroke-opacity:1" d="M424.535 78.277a8.682 7.814 0 1 1-17.364 0 8.682 7.814 0 1 1 17.364 0z" transform="matrix(1.00787 0 0 1.11985 -347.043 97.463)"/><path style="font-size:14px;font-style:normal;font-variant:normal;font-weight:700;font-stretch:normal;text-align:start;line-height:100%;writing-mode:lr-tb;text-anchor:start;fill:#000;fill-opacity:1;stroke:none;stroke-width:1px;stroke-linecap:butt;stroke-linejoin:miter;stroke-opacity:1;font-family:Courier New" d="M117.59 188.256h3.07c.168-.137.328-.205.478-.205a.65.65 0 0 1 .51.211c.125.142.187.383.187.725v.67h-6.384v-1.483c2.524-2.083 4.049-3.423 4.573-4.02.264-.305.396-.595.396-.868 0-.342-.149-.644-.448-.906-.298-.262-.696-.393-1.192-.393-.502 0-.919.146-1.251.438-.174.154-.313.385-.417.69-.064.191-.152.328-.264.41a.68.68 0 0 1-.413.123.683.683 0 0 1-.496-.205.65.65 0 0 1-.208-.478c0-.274.126-.616.38-1.026.252-.41.621-.738 1.107-.984a3.45 3.45 0 0 1 1.582-.37c.884 0 1.609.268 2.174.804.565.535.848 1.184.848 1.945 0 .387-.081.746-.243 1.076-.162.33-.55.788-1.166 1.371-.483.46-1.424 1.285-2.823 2.475z"/><path style="fill:none;fill-opacity:1;stroke:#000;stroke-width:1.41191483;stroke-linecap:square;stroke-miterlimit:4;stroke-dasharray:none;stroke-dashoffset:0;stroke-opacity:1" d="M424.535 78.277a8.682 7.814 0 1 1-17.364 0 8.682 7.814 0 1 1 17.364 0z" transform="matrix(1.00787 0 0 1.11985 -300.482 97.463)"/><path style="font-size:14px;font-style:normal;font-variant:normal;font-weight:700;font-stretch:normal;text-align:start;line-height:100%;writing-mode:lr-tb;text-anchor:start;fill:#000;fill-opacity:1;stroke:none;stroke-width:1px;stroke-linecap:butt;stroke-linejoin:miter;stroke-opacity:1;font-family:Courier New" d="M167.374 180.698v5.483c.296 0 .515.065.656.195.141.13.212.297.212.502a.657.657 0 0 1-.215.506c-.144.132-.362.198-.653.198v.56c.296 0 .515.067.656.2a.66.66 0 0 1 .212.505.647.647 0 0 1-.215.502c-.144.13-.384.195-.722.195h-1.88c-.337 0-.577-.065-.72-.195a.654.654 0 0 1-.216-.509c0-.205.072-.372.215-.502.144-.13.384-.195.721-.195h.547v-.56h-3.807v-1.17l3.356-5.715h1.853zm-1.402 5.483v-3.445l-2.03 3.445h2.03z"/><path style="fill:none;fill-opacity:1;stroke:#000;stroke-width:1.41191483;stroke-linecap:square;stroke-miterlimit:4;stroke-dasharray:none;stroke-dashoffset:0;stroke-opacity:1" d="M424.535 78.277a8.682 7.814 0 1 1-17.364 0 8.682 7.814 0 1 1 17.364 0z" transform="matrix(1.00787 0 0 1.11985 -253.922 97.463)"/><path style="font-size:14px;font-style:normal;font-variant:normal;font-weight:700;font-stretch:normal;text-align:start;line-height:100%;writing-mode:lr-tb;text-anchor:start;fill:#000;fill-opacity:1;stroke:none;stroke-width:1px;stroke-linecap:butt;stroke-linejoin:miter;stroke-opacity:1;font-family:Courier New" d="M210.615 181.997v1.668c.52-.164.992-.246 1.415-.246.862 0 1.577.294 2.147.882.57.588.854 1.347.854 2.276 0 .957-.288 1.708-.864 2.253-.577.544-1.46.817-2.65.817-1.048 0-1.877-.198-2.488-.595-.355-.228-.533-.49-.533-.786 0-.187.07-.35.209-.489a.677.677 0 0 1 .495-.208c.16 0 .333.076.52.229.187.152.383.258.588.318.291.086.665.13 1.12.13.848 0 1.427-.136 1.737-.407.31-.271.465-.687.465-1.248 0-.551-.15-.984-.448-1.299-.298-.314-.682-.471-1.152-.471-.506 0-1.082.164-1.73.492a.842.842 0 0 1-.382.116.655.655 0 0 1-.502-.219.804.804 0 0 1-.202-.567v-4.047h4.286c.337 0 .578.065.721.195.144.13.216.3.216.51a.647.647 0 0 1-.216.502c-.143.13-.384.194-.72.194h-2.886z"/><path style="fill:none;fill-opacity:1;stroke:#000;stroke-width:1.41191483;stroke-linecap:square;stroke-miterlimit:4;stroke-dasharray:none;stroke-dashoffset:0;stroke-opacity:1" d="M424.535 78.277a8.682 7.814 0 1 1-17.364 0 8.682 7.814 0 1 1 17.364 0z" transform="matrix(1.00787 0 0 1.11985 -207.361 97.463)"/><path style="font-size:14px;font-style:normal;font-variant:normal;font-weight:700;font-stretch:normal;text-align:start;line-height:100%;writing-mode:lr-tb;text-anchor:start;fill:#000;fill-opacity:1;stroke:none;stroke-width:1px;stroke-linecap:butt;stroke-linejoin:miter;stroke-opacity:1;font-family:Courier New" d="M256.68 184.77c.337-.283.659-.49.964-.62.305-.13.631-.194.978-.194.733 0 1.376.291 1.927.875.552.583.827 1.315.827 2.194 0 .816-.256 1.476-.769 1.98-.512.503-1.208.754-2.088.754-.734 0-1.338-.17-1.811-.512-.474-.342-.832-.868-1.074-1.58-.241-.71-.362-1.503-.362-2.378 0-1.048.24-1.92.718-2.615.478-.695 1.041-1.234 1.688-1.617a3.966 3.966 0 0 1 2.051-.574c.57 0 1.012.112 1.326.335.205.15.308.342.308.574a.707.707 0 0 1-.205.516.666.666 0 0 1-.492.209c-.11 0-.267-.055-.472-.164a.772.772 0 0 0-.356-.096c-.446 0-.909.127-1.387.38-.479.252-.894.641-1.244 1.165-.242.365-.417.82-.527 1.367zm.205 2.166c.146.547.343.92.592 1.121.248.2.602.301 1.063.301.46 0 .814-.12 1.063-.362.248-.242.372-.57.372-.985 0-.474-.142-.868-.427-1.182-.285-.315-.605-.472-.96-.472-.283 0-.585.14-.906.417-.322.278-.587.665-.797 1.162z"/><path style="fill:none;fill-opacity:1;stroke:#000;stroke-width:1.41191483;stroke-linecap:square;stroke-miterlimit:4;stroke-dasharray:none;stroke-dashoffset:0;stroke-opacity:1" d="M424.535 78.277a8.682 7.814 0 1 1-17.364 0 8.682 7.814 0 1 1 17.364 0z" transform="matrix(1.00787 0 0 1.11985 -160.801 97.463)"/><path transform="matrix(.8063 0 0 .89588 -176.07 18.414)" d="M424.535 78.277a8.682 7.814 0 1 1-17.364 0 8.682 7.814 0 1 1 17.364 0z" style="fill:#000;fill-opacity:1;stroke:none;stroke-width:1;stroke-linecap:square;stroke-miterlimit:4;stroke-dasharray:none;stroke-dashoffset:0;stroke-opacity:1"/><path transform="matrix(.8063 0 0 .89588 -95.66 18.414)" d="M424.535 78.277a8.682 7.814 0 1 1-17.364 0 8.682 7.814 0 1 1 17.364 0z" style="fill:#000;fill-opacity:1;stroke:none;stroke-width:1;stroke-linecap:square;stroke-miterlimit:4;stroke-dasharray:none;stroke-dashoffset:0;stroke-opacity:1"/><path style="fill:#000;fill-opacity:1;stroke:none;stroke-width:1;stroke-linecap:square;stroke-miterlimit:4;stroke-dasharray:none;stroke-dashoffset:0;stroke-opacity:1" d="M424.535 78.277a8.682 7.814 0 1 1-17.364 0 8.682 7.814 0 1 1 17.364 0z" transform="matrix(.8063 0 0 .89588 -217.75 66.415)"/><path style="font-size:14px;font-style:normal;font-variant:normal;font-weight:700;font-stretch:normal;text-align:start;line-height:100%;writing-mode:lr-tb;text-anchor:start;fill:#000;fill-opacity:1;stroke:none;stroke-width:1px;stroke-linecap:butt;stroke-linejoin:miter;stroke-opacity:1;font-family:Courier New" d="M37.85 136.292c.415.283.725.61.93.981.205.372.307.788.307 1.248 0 .497-.135.956-.406 1.377-.271.422-.665.74-1.18.957-.515.217-1.189.325-2.023.325-1.085 0-1.9-.169-2.447-.506-.306-.191-.458-.42-.458-.683 0-.201.067-.37.201-.51a.655.655 0 0 1 .49-.208c.131 0 .268.045.41.137.2.136.389.227.567.273.273.064.65.096 1.128.096.815 0 1.406-.106 1.77-.318.365-.212.547-.512.547-.9 0-.286-.106-.563-.318-.83a2.059 2.059 0 0 0-.85-.618c-.206-.082-.552-.14-1.04-.171-.232-.014-.411-.086-.537-.216a.667.667 0 0 1-.188-.482.704.704 0 0 1 .725-.71c.465 0 .713-.003.745-.007.182-.019.365-.078.547-.178a1.2 1.2 0 0 0 .44-.414 1 1 0 0 0 .168-.543c0-.296-.13-.553-.393-.77-.262-.216-.655-.324-1.179-.324-.674 0-1.19.196-1.545.588a1.03 1.03 0 0 1-.253.219.682.682 0 0 1-.321.075.671.671 0 0 1-.492-.205.687.687 0 0 1-.205-.506c0-.314.21-.62.629-.916.61-.433 1.374-.65 2.29-.65.866 0 1.56.247 2.085.739.524.492.786 1.085.786 1.777 0 .36-.078.696-.233 1.009-.155.312-.387.6-.697.864z"/><path style="fill:none;fill-opacity:1;stroke:#000;stroke-width:1.41191483;stroke-linecap:square;stroke-miterlimit:4;stroke-dasharray:none;stroke-dashoffset:0;stroke-opacity:1" d="M424.535 78.277a8.682 7.814 0 1 1-17.364 0 8.682 7.814 0 1 1 17.364 0z" transform="matrix(1.00787 0 0 1.11985 -383.295 48.883)"/><path style="fill:#000;fill-opacity:1;stroke:none;stroke-width:1;stroke-linecap:square;stroke-miterlimit:4;stroke-dasharray:none;stroke-dashoffset:0;stroke-opacity:1" d="M424.535 78.277a8.682 7.814 0 1 1-17.364 0 8.682 7.814 0 1 1 17.364 0z" transform="matrix(.8063 0 0 .89588 -136.028 66.415)"/><path style="fill:#000;fill-opacity:1;stroke:none;stroke-width:1;stroke-linecap:square;stroke-miterlimit:4;stroke-dasharray:none;stroke-dashoffset:0;stroke-opacity:1" d="M424.535 78.277a8.682 7.814 0 1 1-17.364 0 8.682 7.814 0 1 1 17.364 0z" transform="matrix(.8063 0 0 .89588 -54.307 66.415)"/><path style="fill:none;fill-rule:evenodd;stroke:#000;stroke-width:2;stroke-linecap:round;stroke-linejoin:miter;stroke-miterlimit:4;stroke-dasharray:none;stroke-opacity:1" d="m117.9 146.782.779 24.298m72.681-27.19-22.018 29.177m34.166-27.442 8.877 26.034m62.27-26.034-14.839 26.612m26.407-27.19 14.662 27.769M148.557 93.567 48.11 128.855m105.652-30.082-30.456 28.347M231.85 97.616l-27.563 28.925m42.024-27.768 27.966 29.503m-81.76-80.406-27.564 31.24m42.025-30.083 25.073 30.083M199.459 5.645l.2 23.72"/><path style="fill:#fff;fill-opacity:1;stroke:#000;stroke-width:1;stroke-linecap:round;stroke-miterlimit:4;stroke-dasharray:none;stroke-dashoffset:0;stroke-opacity:1" d="M190.294 9.225h19.099V24.01h-19.099z"/><path style="font-size:14px;font-style:normal;font-variant:normal;font-weight:700;font-stretch:normal;text-align:start;line-height:100%;writing-mode:lr-tb;text-anchor:start;fill:#000;fill-opacity:1;stroke:none;stroke-width:1px;stroke-linecap:butt;stroke-linejoin:miter;stroke-opacity:1;font-family:Courier New" d="M199.375 13.606v.875c.588-.423 1.051-.706 1.391-.847.34-.142.657-.212.954-.212.455 0 .897.168 1.326.506.291.228.437.46.437.697a.7.7 0 0 1-.208.51.685.685 0 0 1-.503.208c-.173 0-.355-.087-.547-.26-.19-.173-.362-.26-.512-.26-.196 0-.489.123-.879.37-.39.245-.876.615-1.46 1.107v2.112h1.997c.337 0 .578.065.721.195.144.13.215.3.215.51a.647.647 0 0 1-.215.502c-.143.13-.384.194-.721.194h-4.231c-.338 0-.578-.064-.722-.194a.654.654 0 0 1-.215-.51c0-.205.072-.372.215-.502.144-.13.384-.195.722-.195h.834v-3.404h-.506c-.338 0-.578-.065-.722-.195a.654.654 0 0 1-.215-.51c0-.204.072-.372.215-.502.144-.13.384-.195.722-.195h1.907z"/><path style="fill:#fff;fill-opacity:1;stroke:#000;stroke-width:1;stroke-linecap:round;stroke-miterlimit:4;stroke-dasharray:none;stroke-dashoffset:0;stroke-opacity:1" d="M167.588 55.562h23.465v14.681h-23.465z"/><path style="font-size:14px;font-style:normal;font-variant:normal;font-weight:700;font-stretch:normal;text-align:start;line-height:100%;writing-mode:lr-tb;text-anchor:start;fill:#000;fill-opacity:1;stroke:none;stroke-width:1px;stroke-linecap:butt;stroke-linejoin:miter;stroke-opacity:1;font-family:Courier New" d="M178.291 63.001c0 .538-.149 1.059-.447 1.562-.299.504-.743.905-1.333 1.203a4.046 4.046 0 0 1-1.85.448 4.02 4.02 0 0 1-1.831-.44c-.584-.295-1.028-.695-1.333-1.2a3.025 3.025 0 0 1-.458-1.587c0-.56.154-1.11.464-1.65a3.28 3.28 0 0 1 1.337-1.275 3.82 3.82 0 0 1 1.822-.465c.638 0 1.252.158 1.842.475.59.317 1.036.743 1.336 1.278a3.33 3.33 0 0 1 .451 1.651zm-1.4.007c0-.451-.163-.866-.486-1.244-.442-.51-1.023-.766-1.743-.766-.634 0-1.163.203-1.586.609-.424.405-.636.875-.636 1.408 0 .437.214.846.642 1.227.429.38.955.57 1.58.57.628 0 1.157-.19 1.586-.57.428-.38.642-.792.642-1.234zm3.991-3.227v.397c.228-.223.434-.377.619-.462a1.53 1.53 0 0 1 .64-.126c.204 0 .407.05.607.15.201.1.397.251.588.452.242-.201.487-.35.735-.448a2.06 2.06 0 0 1 .762-.147c.52 0 .942.139 1.265.417.428.364.643.843.643 1.435v3.138c.291 0 .508.066.65.198.14.132.211.301.211.506a.65.65 0 0 1-.212.503c-.141.13-.38.194-.718.194h-1.333v-4.422c0-.215-.038-.363-.116-.445-.077-.082-.196-.123-.355-.123a.801.801 0 0 0-.431.123c-.169.114-.374.328-.615.643v2.823c.291 0 .508.066.65.198.14.132.211.301.211.506a.65.65 0 0 1-.212.503c-.141.13-.38.194-.718.194h-1.333v-4.422c0-.21-.04-.357-.12-.441-.079-.085-.199-.127-.358-.127a.89.89 0 0 0-.486.154c-.159.103-.35.306-.574.612v2.823c.292 0 .51.066.653.198a.656.656 0 0 1 .215.506.647.647 0 0 1-.215.503c-.143.13-.384.194-.721.194h-1.265c-.337 0-.577-.065-.72-.194a.654.654 0 0 1-.216-.51c0-.205.07-.372.212-.502.14-.13.36-.195.656-.195v-3.404c-.296 0-.515-.066-.656-.199a.662.662 0 0 1-.212-.505.65.65 0 0 1 .215-.503c.144-.13.384-.195.721-.195h1.333z"/><path style="fill:#fff;fill-opacity:1;stroke:#000;stroke-width:1;stroke-linecap:round;stroke-miterlimit:4;stroke-dasharray:none;stroke-dashoffset:0;stroke-opacity:1" d="M209.471 56.058h23.465v14.681h-23.465z"/><path style="font-size:14px;font-style:normal;font-variant:normal;font-weight:700;font-stretch:normal;text-align:start;line-height:100%;writing-mode:lr-tb;text-anchor:start;fill:#000;fill-opacity:1;stroke:none;stroke-width:1px;stroke-linecap:butt;stroke-linejoin:miter;stroke-opacity:1;font-family:Courier New" d="M220.07 61.512v4.806c.295 0 .514.066.655.198.142.132.212.3.212.506a.647.647 0 0 1-.215.502c-.144.13-.384.195-.721.195h-1.333v-.321a6.741 6.741 0 0 1-1.149.41c-.364.091-.71.137-1.039.137-.46 0-.859-.097-1.196-.29a2.131 2.131 0 0 1-.8-.804c-.141-.246-.212-.554-.212-.923v-3.015h-.239c-.337 0-.578-.065-.721-.194a.654.654 0 0 1-.216-.51c0-.205.072-.372.216-.502.143-.13.384-.195.721-.195h1.64v4.17c0 .296.072.514.216.653.144.139.363.208.66.208.282 0 .586-.056.912-.167.326-.112.728-.314 1.207-.605v-2.858h-.506c-.337 0-.578-.065-.721-.194a.654.654 0 0 1-.216-.51c0-.205.072-.372.216-.502.143-.13.384-.195.72-.195h1.908zm3.65-2.66v3.145c.341-.223.689-.39 1.042-.502a3.53 3.53 0 0 1 1.07-.168c.97 0 1.793.335 2.468 1.005a3.295 3.295 0 0 1 1.011 2.427c0 .907-.321 1.665-.964 2.273-.642.608-1.49.913-2.543.913-.373 0-.733-.048-1.08-.144a4.288 4.288 0 0 1-1.004-.424v.342h-1.641c-.337 0-.578-.065-.721-.195a.654.654 0 0 1-.216-.51.64.64 0 0 1 .22-.502c.145-.13.384-.194.717-.194h.24v-6.064h-.24c-.337 0-.578-.065-.721-.195a.654.654 0 0 1-.216-.509c0-.205.072-.372.216-.502.143-.13.384-.195.72-.195h1.642zm4.19 5.948a1.99 1.99 0 0 0-.608-1.47 2.038 2.038 0 0 0-1.49-.601c-.584 0-1.078.2-1.484.601a1.964 1.964 0 0 0-.608 1.45c0 .515.182.937.546 1.268.365.33.88.495 1.545.495.666 0 1.182-.165 1.549-.495.367-.33.55-.747.55-1.248z"/><path style="fill:#fff;fill-opacity:1;stroke:#000;stroke-width:1;stroke-linecap:round;stroke-miterlimit:4;stroke-dasharray:none;stroke-dashoffset:0;stroke-opacity:1" d="M127.849 105.732h23.465v14.681h-23.465z"/><path style="font-size:14px;font-style:normal;font-variant:normal;font-weight:700;font-stretch:normal;text-align:start;line-height:100%;writing-mode:lr-tb;text-anchor:start;fill:#000;fill-opacity:1;stroke:none;stroke-width:1px;stroke-linecap:butt;stroke-linejoin:miter;stroke-opacity:1;font-family:Courier New" d="M136.523 116.151v-.328a4.527 4.527 0 0 1-1.162.42 5.41 5.41 0 0 1-1.156.14c-.752 0-1.362-.198-1.832-.597-.47-.399-.704-.84-.704-1.323 0-.588.3-1.134.899-1.637.6-.504 1.428-.756 2.485-.756.424 0 .914.046 1.47.137v-.335a.61.61 0 0 0-.27-.513c-.18-.132-.523-.198-1.03-.198-.414 0-.952.082-1.613.246-.246.06-.437.09-.574.09a.635.635 0 0 1-.475-.202.712.712 0 0 1-.195-.517c0-.118.023-.22.069-.307a.544.544 0 0 1 .191-.209c.082-.052.253-.115.513-.188.346-.095.7-.172 1.06-.229a6.31 6.31 0 0 1 .977-.085c.87 0 1.546.188 2.027.564.48.376.721.89.721 1.541v2.885h.24c.336 0 .577.065.72.195.144.13.216.3.216.51a.647.647 0 0 1-.216.502c-.143.13-.384.194-.72.194h-1.641zm0-2.508a8.145 8.145 0 0 0-1.552-.164c-.57 0-1.06.139-1.47.417-.255.177-.383.357-.383.54 0 .132.062.239.185.32.228.151.54.227.936.227.338 0 .72-.067 1.145-.199a4.203 4.203 0 0 0 1.139-.54v-.601zm5.714-3.699v.472c.256-.219.537-.383.845-.492a2.97 2.97 0 0 1 1.001-.164c.83 0 1.486.257 1.969.772.383.41.574.948.574 1.614v2.604c.296 0 .515.065.656.195.142.13.212.3.212.51a.647.647 0 0 1-.215.502c-.144.13-.384.194-.721.194h-1.265c-.337 0-.578-.064-.721-.194a.654.654 0 0 1-.215-.51c0-.205.07-.372.212-.502.14-.13.36-.195.656-.195v-2.645c0-.306-.082-.529-.246-.67-.215-.183-.536-.274-.964-.274a1.84 1.84 0 0 0-.851.188c-.244.126-.553.391-.927.797v2.604c.36 0 .593.034.698.103a.663.663 0 0 1 .335.601.647.647 0 0 1-.216.503c-.143.13-.384.194-.72.194h-1.594c-.337 0-.577-.064-.72-.194a.654.654 0 0 1-.216-.51.67.67 0 0 1 .328-.594c.11-.069.344-.103.704-.103v-3.404c-.296 0-.515-.066-.656-.198a.662.662 0 0 1-.212-.506.65.65 0 0 1 .215-.503c.144-.13.384-.195.721-.195h1.333z"/><path style="fill:#fff;fill-opacity:1;stroke:#000;stroke-width:1;stroke-linecap:round;stroke-miterlimit:4;stroke-dasharray:none;stroke-dashoffset:0;stroke-opacity:1" d="M83.359 151.013h19.099v14.785H83.359z"/><path style="font-size:14px;font-style:normal;font-variant:normal;font-weight:700;font-stretch:normal;text-align:start;line-height:100%;writing-mode:lr-tb;text-anchor:start;fill:#000;fill-opacity:1;stroke:none;stroke-width:1px;stroke-linecap:butt;stroke-linejoin:miter;stroke-opacity:1;font-family:Courier New" d="M96.538 159.096H90.79c.146.364.405.658.776.881.372.224.874.335 1.508.335.52 0 1.21-.111 2.07-.335.356-.09.602-.136.74-.136a.63.63 0 0 1 .47.198.69.69 0 0 1 .192.499.612.612 0 0 1-.205.465c-.182.169-.627.33-1.333.482a9.641 9.641 0 0 1-2.037.229c-1.121 0-2.018-.317-2.69-.95a3.086 3.086 0 0 1-1.008-2.338c0-.985.363-1.786 1.09-2.403a3.767 3.767 0 0 1 2.512-.926c.57 0 1.093.1 1.57.3.475.2.83.417 1.062.65.328.337.6.754.814 1.25.145.347.218.748.218 1.204v.595zm-1.551-1.402c-.215-.4-.495-.7-.841-.899-.347-.198-.759-.297-1.238-.297-.473 0-.884.1-1.23.297-.346.199-.629.498-.848.9h4.157z"/><path style="fill:#fff;fill-opacity:1;stroke:#000;stroke-width:1;stroke-linecap:round;stroke-miterlimit:4;stroke-dasharray:none;stroke-dashoffset:0;stroke-opacity:1" d="M111.653 151.657h23.465v14.681h-23.465z"/><path style="font-size:14px;font-style:normal;font-variant:normal;font-weight:700;font-stretch:normal;text-align:start;line-height:100%;writing-mode:lr-tb;text-anchor:start;fill:#000;fill-opacity:1;stroke:none;stroke-width:1px;stroke-linecap:butt;stroke-linejoin:miter;stroke-opacity:1;font-family:Courier New" d="M122.558 155.873v4.806c.296 0 .515.066.656.198a.661.661 0 0 1 .212.506.647.647 0 0 1-.215.503c-.144.13-.384.194-.721.194h-1.333v-.32a6.74 6.74 0 0 1-1.149.41c-.364.09-.71.136-1.039.136-.46 0-.859-.097-1.196-.29a2.131 2.131 0 0 1-.8-.804c-.141-.246-.212-.553-.212-.923v-3.014h-.24c-.336 0-.577-.065-.72-.195a.654.654 0 0 1-.216-.51c0-.204.072-.372.216-.502.143-.13.384-.195.72-.195h1.642v4.17c0 .297.071.514.215.653.143.14.363.209.66.209.282 0 .586-.056.912-.168.326-.111.728-.313 1.207-.605v-2.857h-.506c-.337 0-.578-.065-.721-.195a.654.654 0 0 1-.216-.51c0-.204.072-.372.216-.502.143-.13.384-.195.72-.195h1.908zm6.932 1.641a2.797 2.797 0 0 0-1.504-.424c-.543 0-.973.09-1.292.267-.141.077-.212.162-.212.253 0 .105.096.207.287.307.146.073.472.144.978.212.93.128 1.576.256 1.941.383.478.169.848.42 1.107.752.26.333.39.684.39 1.053 0 .501-.221.92-.663 1.258-.634.487-1.456.731-2.468.731-.405 0-.78-.035-1.124-.106a4.121 4.121 0 0 1-.947-.31.797.797 0 0 1-.219.136.623.623 0 0 1-.24.048.67.67 0 0 1-.522-.216c-.13-.143-.195-.384-.195-.72v-.473c0-.337.065-.577.195-.72.13-.144.3-.216.51-.216.168 0 .31.047.423.14.114.093.203.254.267.482.214.182.471.32.772.414.3.093.647.14 1.04.14.642 0 1.14-.1 1.496-.301.169-.1.253-.205.253-.315 0-.182-.12-.332-.362-.45-.242-.12-.74-.22-1.497-.301-1.126-.119-1.878-.347-2.256-.684a1.575 1.575 0 0 1-.567-1.23c0-.502.211-.919.635-1.252.574-.455 1.326-.683 2.256-.683.324 0 .635.03.933.092.299.062.585.156.858.284a1.24 1.24 0 0 1 .243-.144.538.538 0 0 1 .208-.048c.192 0 .351.072.479.216.127.143.191.384.191.721v.342c0 .305-.036.512-.11.622a.688.688 0 0 1-.594.314.68.68 0 0 1-.444-.157.711.711 0 0 1-.246-.417z"/><path style="fill:#fff;fill-opacity:1;stroke:#000;stroke-width:1;stroke-linecap:round;stroke-miterlimit:4;stroke-dasharray:none;stroke-dashoffset:0;stroke-opacity:1" d="M61.915 111.327h38.104v14.418H61.915z"/><path style="font-size:14px;font-style:normal;font-variant:normal;font-weight:700;font-stretch:normal;text-align:start;line-height:100%;writing-mode:lr-tb;text-anchor:start;fill:#000;fill-opacity:1;stroke:none;stroke-width:1px;stroke-linecap:butt;stroke-linejoin:miter;stroke-opacity:1;font-family:Courier New" d="M71.746 116.65v4.805c.296 0 .515.066.656.198.141.132.212.3.212.506a.647.647 0 0 1-.216.502c-.143.13-.383.195-.72.195h-1.334v-.321a6.74 6.74 0 0 1-1.148.41 4.3 4.3 0 0 1-1.04.137c-.46 0-.858-.097-1.196-.29a2.131 2.131 0 0 1-.8-.804c-.14-.246-.211-.554-.211-.923v-3.014h-.24c-.337 0-.577-.065-.72-.195a.654.654 0 0 1-.216-.51c0-.205.072-.372.215-.502.144-.13.384-.195.722-.195h1.64v4.17c0 .296.072.514.215.653.144.139.364.208.66.208.283 0 .587-.055.913-.167.326-.112.728-.313 1.206-.605v-2.857h-.506c-.337 0-.577-.065-.72-.195a.654.654 0 0 1-.216-.51c0-.205.072-.372.215-.502.144-.13.384-.195.721-.195h1.908zm6.118-2.66v7.465h1.681c.338 0 .578.065.722.195.143.13.215.3.215.509a.647.647 0 0 1-.215.502c-.144.13-.384.195-.722.195h-4.764c-.337 0-.578-.065-.721-.195a.654.654 0 0 1-.216-.509c0-.205.072-.372.216-.502.143-.13.384-.195.72-.195h1.682v-6.064h-1.127c-.333 0-.572-.065-.718-.194a.65.65 0 0 1-.219-.51c0-.205.072-.372.215-.502.144-.13.384-.195.722-.195h2.529zm10.67 2.66v4.805c.297 0 .516.066.657.198.141.132.212.3.212.506a.647.647 0 0 1-.215.502c-.144.13-.384.195-.722.195h-1.333v-.321a6.74 6.74 0 0 1-1.148.41 4.3 4.3 0 0 1-1.04.137c-.46 0-.858-.097-1.195-.29a2.131 2.131 0 0 1-.8-.804c-.142-.246-.212-.554-.212-.923v-3.014h-.24c-.337 0-.577-.065-.72-.195a.654.654 0 0 1-.216-.51c0-.205.072-.372.215-.502.144-.13.384-.195.722-.195h1.64v4.17c0 .296.072.514.216.653.143.139.363.208.66.208.282 0 .586-.055.912-.167.326-.112.728-.313 1.206-.605v-2.857h-.506c-.337 0-.577-.065-.72-.195a.654.654 0 0 1-.216-.51c0-.205.072-.372.215-.502.144-.13.384-.195.721-.195h1.908zm6.932 1.64a2.797 2.797 0 0 0-1.504-.424c-.542 0-.973.089-1.292.267-.14.077-.211.161-.211.253 0 .104.095.207.287.307.145.073.471.144.977.212.93.128 1.577.255 1.942.383.478.169.847.42 1.107.752.26.333.39.683.39 1.053 0 .5-.221.92-.663 1.257-.634.488-1.456.732-2.468.732-.406 0-.78-.035-1.125-.106a4.122 4.122 0 0 1-.946-.311.797.797 0 0 1-.22.137.623.623 0 0 1-.238.047.67.67 0 0 1-.523-.215c-.13-.143-.195-.384-.195-.721v-.472c0-.337.065-.577.195-.721.13-.144.3-.215.509-.215.168 0 .31.046.424.14.114.093.202.254.266.482.214.182.472.32.773.413.3.094.647.14 1.039.14.642 0 1.141-.1 1.497-.3.168-.1.253-.205.253-.315 0-.182-.121-.332-.363-.45-.241-.12-.74-.22-1.497-.302-1.125-.118-1.877-.346-2.255-.683a1.575 1.575 0 0 1-.568-1.23c0-.502.212-.92.636-1.252.574-.455 1.326-.683 2.256-.683.323 0 .634.03.933.092.298.061.584.156.858.284.086-.064.167-.112.242-.144a.538.538 0 0 1 .209-.048c.191 0 .35.072.478.216.128.143.192.384.192.72v.343c0 .305-.037.512-.11.622a.688.688 0 0 1-.594.314.68.68 0 0 1-.445-.157.711.711 0 0 1-.246-.417z"/><path style="fill:#fff;fill-opacity:1;stroke:#000;stroke-width:1;stroke-linecap:round;stroke-miterlimit:4;stroke-dasharray:none;stroke-dashoffset:0;stroke-opacity:1" d="M162.124 150.437h23.465v14.681h-23.465z"/><path style="font-size:14px;font-style:normal;font-variant:normal;font-weight:700;font-stretch:normal;text-align:start;line-height:100%;writing-mode:lr-tb;text-anchor:start;fill:#000;fill-opacity:1;stroke:none;stroke-width:1px;stroke-linecap:butt;stroke-linejoin:miter;stroke-opacity:1;font-family:Courier New" d="M168.562 154.654v.471c.255-.218.536-.382.844-.492.308-.11.641-.164 1.001-.164.83 0 1.486.258 1.97.773.382.41.573.948.573 1.613v2.604c.297 0 .515.065.657.195.141.13.212.3.212.51a.647.647 0 0 1-.216.502c-.143.13-.384.195-.72.195h-1.266c-.337 0-.577-.065-.72-.195a.654.654 0 0 1-.216-.51.65.65 0 0 1 .212-.502c.141-.13.36-.195.656-.195v-2.645c0-.305-.082-.529-.246-.67-.214-.182-.536-.273-.964-.273a1.83 1.83 0 0 0-.851.188c-.244.125-.553.39-.926.796v2.604c.36 0 .592.035.697.103a.663.663 0 0 1 .335.602.647.647 0 0 1-.215.502c-.144.13-.384.195-.722.195h-1.592c-.338 0-.578-.065-.721-.195a.654.654 0 0 1-.216-.51.67.67 0 0 1 .328-.594c.11-.068.344-.103.704-.103v-3.404c-.296 0-.515-.066-.656-.198a.662.662 0 0 1-.212-.506c0-.205.072-.373.216-.502.143-.13.384-.195.72-.195h1.334zm11.327 1.64a2.797 2.797 0 0 0-1.504-.423c-.542 0-.973.088-1.292.266-.141.078-.212.162-.212.253 0 .105.096.207.287.308.146.073.472.143.978.212.93.127 1.577.255 1.941.382.479.169.848.42 1.108.752.26.333.39.684.39 1.053 0 .501-.222.92-.664 1.258-.633.488-1.456.731-2.468.731-.405 0-.78-.035-1.124-.106a4.122 4.122 0 0 1-.947-.31.797.797 0 0 1-.219.136.623.623 0 0 1-.239.048.67.67 0 0 1-.523-.215c-.13-.144-.195-.384-.195-.722v-.471c0-.338.065-.578.195-.721.13-.144.3-.216.51-.216.168 0 .31.047.423.14.114.094.203.254.267.482.214.183.472.32.772.414.301.093.647.14 1.04.14.642 0 1.14-.1 1.496-.3.169-.101.253-.206.253-.315 0-.183-.12-.333-.362-.451-.241-.119-.74-.22-1.497-.301-1.126-.119-1.878-.347-2.256-.684a1.575 1.575 0 0 1-.567-1.23c0-.502.212-.919.635-1.251.575-.456 1.327-.684 2.256-.684.324 0 .635.031.933.092.299.062.585.157.858.284a1.23 1.23 0 0 1 .243-.143.538.538 0 0 1 .209-.048c.19 0 .35.072.478.215.128.144.191.384.191.721v.342c0 .305-.036.513-.109.622a.688.688 0 0 1-.595.315.68.68 0 0 1-.444-.158.711.711 0 0 1-.246-.417z"/><path style="fill:#fff;fill-opacity:1;stroke:#000;stroke-width:1;stroke-linecap:round;stroke-miterlimit:4;stroke-dasharray:none;stroke-dashoffset:0;stroke-opacity:1" d="M250.294 106.725h23.465v14.681h-23.465z"/><path style="font-size:14px;font-style:normal;font-variant:normal;font-weight:700;font-stretch:normal;text-align:start;line-height:100%;writing-mode:lr-tb;text-anchor:start;fill:#000;fill-opacity:1;stroke:none;stroke-width:1px;stroke-linecap:butt;stroke-linejoin:miter;stroke-opacity:1;font-family:Courier New" d="M258.12 109.516V111h-1.669v-1.483h1.668zm.19 2.66v4.805h1.682c.338 0 .578.065.722.195.143.13.215.3.215.509a.647.647 0 0 1-.215.502c-.144.13-.384.195-.722.195h-4.764c-.337 0-.578-.065-.721-.195a.654.654 0 0 1-.216-.509c0-.205.072-.372.216-.502.143-.13.384-.195.72-.195h1.682v-3.404h-1.127c-.333 0-.572-.065-.718-.195a.65.65 0 0 1-.219-.51c0-.205.072-.372.215-.502.144-.13.384-.195.722-.195h2.529zm9.886.252c.168-.16.341-.24.52-.24.2 0 .365.073.495.216.13.144.195.382.195.715v.902c0 .337-.065.576-.195.718a.66.66 0 0 1-.51.212.736.736 0 0 1-.485-.164c-.096-.082-.17-.25-.225-.503a.824.824 0 0 0-.397-.564c-.37-.219-.84-.328-1.415-.328-.66 0-1.19.194-1.59.581-.398.387-.598.877-.598 1.47 0 .547.192.978.575 1.295.383.317 1.018.475 1.907.475.583 0 1.06-.059 1.429-.177.218-.073.426-.198.622-.373s.373-.263.533-.263a.67.67 0 0 1 .496.212.688.688 0 0 1 .208.499c0 .31-.212.604-.636.882-.629.414-1.55.622-2.761.622-1.09 0-1.937-.226-2.543-.677-.82-.606-1.23-1.436-1.23-2.488 0-.998.332-1.824.997-2.478.666-.654 1.534-.981 2.605-.981.387 0 .747.036 1.08.109.332.073.64.182.923.328z"/><path style="fill:#fff;fill-opacity:1;stroke:#000;stroke-width:1;stroke-linecap:round;stroke-miterlimit:4;stroke-dasharray:none;stroke-dashoffset:0;stroke-opacity:1" d="M273.575 158.568h44.955v14.314h-44.955z"/><path style="font-size:14px;font-style:normal;font-variant:normal;font-weight:700;font-stretch:normal;text-align:start;line-height:100%;writing-mode:lr-tb;text-anchor:start;fill:#000;fill-opacity:1;stroke:none;stroke-width:1px;stroke-linecap:butt;stroke-linejoin:miter;stroke-opacity:1;font-family:Courier New" d="M282.633 163.839v4.805c.297 0 .515.067.657.199.14.132.211.3.212.506a.647.647 0 0 1-.216.502c-.143.13-.384.195-.721.195h-1.333v-.321a6.74 6.74 0 0 1-1.148.41c-.365.09-.711.136-1.04.136-.46 0-.859-.096-1.196-.29a2.131 2.131 0 0 1-.8-.803c-.14-.246-.212-.554-.212-.923v-3.015h-.239c-.337 0-.577-.065-.721-.195a.654.654 0 0 1-.215-.509c0-.205.071-.373.215-.502.144-.13.384-.195.721-.195h1.64v4.17c0 .296.073.514.216.653.144.139.364.208.66.208.282 0 .587-.056.912-.167.326-.112.728-.314 1.207-.605v-2.858h-.506c-.337 0-.578-.065-.721-.195a.654.654 0 0 1-.215-.509c0-.205.071-.373.215-.502.143-.13.384-.195.721-.195h1.907zm4 0v.471c.255-.218.536-.382.844-.492a2.97 2.97 0 0 1 1.001-.164c.83 0 1.486.258 1.969.773.383.41.574.948.574 1.613v2.604c.296 0 .515.065.656.195.142.13.212.3.212.51a.647.647 0 0 1-.215.502c-.144.13-.384.195-.721.195h-1.265c-.337 0-.578-.065-.721-.195a.654.654 0 0 1-.215-.51c0-.204.07-.372.211-.502.142-.13.36-.195.657-.195V166c0-.305-.082-.529-.246-.67-.215-.182-.536-.273-.964-.273-.324 0-.608.062-.851.188-.244.125-.553.39-.927.796v2.604c.36 0 .593.035.698.103a.663.663 0 0 1 .335.602.647.647 0 0 1-.216.502c-.143.13-.384.195-.72.195h-1.594c-.337 0-.577-.065-.72-.195a.654.654 0 0 1-.216-.51.67.67 0 0 1 .328-.594c.11-.068.344-.103.704-.103v-3.404c-.296 0-.515-.066-.656-.198a.662.662 0 0 1-.212-.506c0-.205.072-.373.215-.502.144-.13.384-.195.721-.195h1.333zm13.029-2.66v7.465h.239c.333 0 .572.065.718.195.146.13.218.3.218.51a.647.647 0 0 1-.215.502c-.143.13-.384.195-.721.195h-1.64v-.342a4.075 4.075 0 0 1-2.085.567c-1.053 0-1.901-.304-2.544-.912-.642-.609-.964-1.366-.964-2.273 0-.948.338-1.757 1.012-2.427.675-.67 1.497-1.005 2.468-1.005.365 0 .722.056 1.073.168.351.111.697.279 1.04.502v-1.743h-.24c-.337 0-.578-.065-.721-.195a.647.647 0 0 1-.216-.502c0-.21.072-.38.216-.51.143-.13.384-.194.721-.194h1.64zm-1.402 5.948a1.99 1.99 0 0 0-.608-1.47 2.039 2.039 0 0 0-1.49-.601c-.584 0-1.078.2-1.484.601a1.964 1.964 0 0 0-.608 1.45c0 .514.182.937.547 1.267.364.33.88.496 1.545.496.66 0 1.175-.165 1.545-.496.369-.33.553-.746.553-1.247zm9.557-3.288v4.805c.296 0 .515.067.656.199.141.132.212.3.212.506a.647.647 0 0 1-.215.502c-.144.13-.384.195-.721.195h-1.333v-.321a6.74 6.74 0 0 1-1.149.41c-.364.09-.71.136-1.039.136-.46 0-.859-.096-1.196-.29a2.132 2.132 0 0 1-.8-.803c-.141-.246-.212-.554-.212-.923v-3.015h-.24c-.336 0-.577-.065-.72-.195a.654.654 0 0 1-.216-.509c0-.205.072-.373.216-.502.143-.13.384-.195.72-.195h1.641v4.17c0 .296.072.514.216.653.143.139.363.208.66.208.282 0 .586-.056.912-.167.326-.112.728-.314 1.207-.605v-2.858h-.506c-.338 0-.578-.065-.721-.195a.654.654 0 0 1-.216-.509c0-.205.072-.373.216-.502.143-.13.383-.195.72-.195h1.908zm6.932 1.64a2.797 2.797 0 0 0-1.504-.423c-.543 0-.973.088-1.292.266-.142.078-.212.162-.212.253 0 .105.095.207.287.308.146.073.472.143.977.212.93.127 1.577.255 1.942.382.478.17.847.42 1.107.752.26.333.39.684.39 1.053 0 .501-.221.92-.663 1.258-.634.488-1.456.731-2.468.731a5.56 5.56 0 0 1-1.124-.106 4.122 4.122 0 0 1-.947-.31.797.797 0 0 1-.219.136.623.623 0 0 1-.24.048.67.67 0 0 1-.522-.215c-.13-.144-.195-.384-.195-.722v-.471c0-.337.065-.578.195-.721.13-.144.3-.216.51-.216.168 0 .309.047.423.14.114.094.203.254.266.482.215.183.472.32.773.414.3.093.647.14 1.039.14.643 0 1.142-.1 1.497-.3.169-.101.253-.206.253-.315 0-.183-.12-.333-.362-.451-.242-.119-.74-.22-1.497-.301-1.126-.119-1.878-.347-2.256-.684a1.575 1.575 0 0 1-.568-1.23c0-.502.212-.919.636-1.251.574-.456 1.326-.684 2.256-.684.324 0 .635.031.933.092.299.062.585.157.858.284.087-.064.167-.111.243-.143a.538.538 0 0 1 .208-.048c.192 0 .351.072.479.215.127.144.191.384.191.721v.342c0 .305-.036.513-.11.622a.688.688 0 0 1-.594.315.68.68 0 0 1-.444-.158.711.711 0 0 1-.246-.417z"/><path style="fill:#fff;fill-opacity:1;stroke:#000;stroke-width:1;stroke-linecap:round;stroke-miterlimit:4;stroke-dasharray:none;stroke-dashoffset:0;stroke-opacity:1" d="M254.019 148.216h23.465v14.681h-23.465z"/><path style="font-size:14px;font-style:normal;font-variant:normal;font-weight:700;font-stretch:normal;text-align:start;line-height:100%;writing-mode:lr-tb;text-anchor:start;fill:#000;fill-opacity:1;stroke:none;stroke-width:1px;stroke-linecap:butt;stroke-linejoin:miter;stroke-opacity:1;font-family:Courier New" d="M265.082 155.652c0 .538-.15 1.059-.448 1.562-.299.504-.743.905-1.333 1.203a4.046 4.046 0 0 1-1.85.448 4.02 4.02 0 0 1-1.831-.44c-.584-.295-1.028-.695-1.333-1.2a3.025 3.025 0 0 1-.458-1.586c0-.561.155-1.111.465-1.651a3.28 3.28 0 0 1 1.336-1.275 3.82 3.82 0 0 1 1.822-.465c.638 0 1.252.158 1.842.475.59.317 1.036.743 1.337 1.278.3.536.45 1.086.45 1.651zm-1.402.007c0-.451-.161-.866-.485-1.244-.442-.51-1.023-.766-1.743-.766-.634 0-1.162.203-1.586.609-.424.405-.636.875-.636 1.408 0 .437.214.846.643 1.227.428.38.954.57 1.579.57.629 0 1.157-.19 1.586-.57.428-.38.642-.792.642-1.234zm4.738-3.226v.471c.255-.219.536-.383.844-.492a2.97 2.97 0 0 1 1.001-.164c.83 0 1.486.257 1.97.772.382.41.573.948.573 1.614v2.604c.297 0 .515.065.657.195.14.13.211.3.212.51a.647.647 0 0 1-.216.502c-.143.13-.384.195-.721.195h-1.265c-.337 0-.577-.065-.72-.195a.654.654 0 0 1-.216-.51c0-.205.07-.372.212-.502.141-.13.36-.195.656-.195v-2.645c0-.306-.082-.529-.246-.67-.214-.183-.536-.274-.964-.274a1.84 1.84 0 0 0-.851.188c-.244.126-.553.391-.926.797v2.604c.36 0 .592.034.697.103a.663.663 0 0 1 .335.601.647.647 0 0 1-.215.503c-.144.13-.384.195-.722.195h-1.592c-.338 0-.578-.065-.722-.195a.654.654 0 0 1-.215-.51.67.67 0 0 1 .328-.594c.11-.069.344-.103.704-.103v-3.404c-.296 0-.515-.066-.656-.198a.662.662 0 0 1-.212-.506.65.65 0 0 1 .215-.503c.144-.13.384-.195.722-.195h1.333z"/><path style="fill:#fff;fill-opacity:1;stroke:#000;stroke-width:1;stroke-linecap:round;stroke-miterlimit:4;stroke-dasharray:none;stroke-dashoffset:0;stroke-opacity:1" d="M208.745 104.379h19.099v14.785h-19.099z"/><path style="font-size:14px;font-style:normal;font-variant:normal;font-weight:700;font-stretch:normal;text-align:start;line-height:100%;writing-mode:lr-tb;text-anchor:start;fill:#000;fill-opacity:1;stroke:none;stroke-width:1px;stroke-linecap:butt;stroke-linejoin:miter;stroke-opacity:1;font-family:Courier New" d="M221.924 112.462h-5.749c.146.364.404.658.776.882.371.223.874.334 1.507.334.52 0 1.21-.111 2.071-.334.356-.092.602-.137.739-.137a.63.63 0 0 1 .471.198.69.69 0 0 1 .192.499.612.612 0 0 1-.205.465c-.183.169-.627.33-1.333.482a9.641 9.641 0 0 1-2.037.229c-1.121 0-2.018-.317-2.69-.95a3.086 3.086 0 0 1-1.009-2.338c0-.985.364-1.786 1.09-2.403a3.767 3.767 0 0 1 2.513-.926c.57 0 1.093.1 1.569.3.476.2.83.417 1.063.65.328.337.6.754.813 1.25.146.347.219.748.219 1.204v.595zm-1.552-1.402c-.214-.4-.494-.7-.84-.899-.347-.198-.76-.297-1.238-.297-.474 0-.884.1-1.23.297-.347.199-.63.498-.848.9h4.156z"/><path style="fill:#fff;fill-opacity:1;stroke:#000;stroke-width:1;stroke-linecap:round;stroke-miterlimit:4;stroke-dasharray:none;stroke-dashoffset:0;stroke-opacity:1" d="M198.261 150.594h19.099v14.785h-19.099z"/><path style="font-size:14px;font-style:normal;font-variant:normal;font-weight:700;font-stretch:normal;text-align:start;line-height:100%;writing-mode:lr-tb;text-anchor:start;fill:#000;fill-opacity:1;stroke:none;stroke-width:1px;stroke-linecap:butt;stroke-linejoin:miter;stroke-opacity:1;font-family:Courier New" d="M207.342 154.976v.875c.588-.424 1.052-.707 1.391-.848.34-.141.658-.212.954-.212.456 0 .898.169 1.326.506.292.228.438.46.438.697 0 .2-.07.37-.209.51a.685.685 0 0 1-.502.208c-.174 0-.356-.087-.547-.26-.192-.173-.363-.26-.513-.26-.196 0-.489.124-.878.37-.39.246-.876.615-1.46 1.107v2.112h1.996c.338 0 .578.065.721.195.144.13.216.3.216.51a.647.647 0 0 1-.216.502c-.143.13-.383.195-.72.195h-4.232c-.337 0-.578-.065-.721-.195a.654.654 0 0 1-.216-.51c0-.204.072-.372.216-.502.143-.13.384-.195.72-.195h.835v-3.404h-.506c-.337 0-.578-.065-.721-.195a.654.654 0 0 1-.216-.509c0-.205.072-.373.216-.502.143-.13.384-.195.721-.195h1.907z"/></svg>